<svg id="sprite" xmlns="http://www.w3.org/2000/svg" version="1.0" class="hidden">

<symbol id="icon-downarrow" viewBox="0 0 24 24" xmlns="http://www.w3.org/2000/svg">
	<path d="m3.9975605 8.1676949c.007.2380601.0981.4659101.2578095.6425801l7.00195 7.722649c.396981.438242 1.085451.438241 1.48243.000001l7.001949-7.72265c.582578-.6425129.12707-1.6713205-.74024-1.6718803h-14.0058483c-.5631405.0009102-1.0144898.4663998-.9980502 1.0293002z"/>
</symbol>


<symbol id="icon-help" xmlns="http://www.w3.org/2000/svg" data-name="Layer 1" viewBox="0 0 100 100" x="0px" y="0px">
	<g data-name="Group"><path data-name="Compound Path" d="M50,17.6A32.4,32.4,0,1,0,82.4,50,32.4,32.4,0,0,0,50,17.6Zm3.2,47.7H47.1v-6h6.2ZM59.1,48a15.4,15.4,0,0,1-3,2.8L54.6,52a4.4,4.4,0,0,0-1.6,2.2,9.1,9.1,0,0,0-.3,2.4H47.2a16.2,16.2,0,0,1,.7-4.8,8.5,8.5,0,0,1,2.8-3.1l1.5-1.2a5.3,5.3,0,0,0,1.2-1.2,4.2,4.2,0,0,0,.8-2.5,4.8,4.8,0,0,0-.9-2.9q-.9-1.3-3.3-1.3a3.7,3.7,0,0,0-3.4,1.6,6.1,6.1,0,0,0-1,3.3h-6q.2-5.9,4.1-8.3a10.8,10.8,0,0,1,6-1.6,12.9,12.9,0,0,1,7.7,2.2,7.6,7.6,0,0,1,3.1,6.6A7.5,7.5,0,0,1,59.1,48Z"></path></g>
</symbol>


<symbol id="icon-welcome" data-name="Layer 1" xmlns="http://www.w3.org/2000/svg" viewBox="0 0 199.9 126" width="199.7" height="120.6"><path id="Fill-310" d="M158,88.38h11.2v-6.9H158Z" transform="translate(-0.27 -0.28)" style="fill:#fff;fill-rule:evenodd"/><path id="Fill-312" d="M172.57,125h-17.9V87.08a1.75,1.75,0,0,1,1.7-1.7h14.5a1.75,1.75,0,0,1,1.7,1.7V125" transform="translate(-0.27 -0.28)" style="fill:#fff;fill-rule:evenodd"/><path id="Fill-322" d="M180.87,114.78a2.15,2.15,0,1,1-2.1-2.2,2.2,2.2,0,0,1,2.1,2.2" transform="translate(-0.27 -0.28)" style="fill:#fff;fill-rule:evenodd"/><path id="Fill-326" d="M164.87,122.18c-.6,0-1-.5-1.1-1.2a3,3,0,0,0-2.6-3,1.22,1.22,0,0,1-1-1.3v-3.4h1.5v2.9a4.74,4.74,0,0,1,3.5,4.2h5v1.8Z" transform="translate(-0.27 -0.28)" style="fill-rule:evenodd"/><path id="Fill-327" d="M183.57,125.38v-4a.58.58,0,0,1,.6-.6h15.4a.58.58,0,0,1,.6.6v4h-16.6" transform="translate(-0.27 -0.28)" style="fill:#fff;fill-rule:evenodd"/><path id="Fill-328" d="M187.77,125.38H186v-3.7h-14.8v3.7h-1.9v-4a1.47,1.47,0,0,1,1.5-1.5h15.4a1.47,1.47,0,0,1,1.5,1.5v4" transform="translate(-0.27 -0.28)" style="fill-rule:evenodd"/><path id="Rectangle" d="M170.57,114.88h17v4.9h-17Z" transform="translate(-0.27 -0.28)" style="fill:#e2e2e2;fill-rule:evenodd"/><path id="Fill-330" d="M172,119.18h14.8v-3.4H172Zm15.3,1.8h-15.7a1.37,1.37,0,0,1-1.4-1.4v-4.3a1.37,1.37,0,0,1,1.4-1.4h15.7a1.37,1.37,0,0,1,1.4,1.4v4.3A1.43,1.43,0,0,1,187.27,121Z" transform="translate(-0.27 -0.28)" style="fill-rule:evenodd"/><path id="Fill-332" d="M171.27,113.28h14.8v-3.4h-14.8Zm15.2,1.8h-15.7a1.37,1.37,0,0,1-1.4-1.4v-4.3a1.37,1.37,0,0,1,1.4-1.4h15.7a1.37,1.37,0,0,1,1.4,1.4v4.3A1.37,1.37,0,0,1,186.47,115.08Z" transform="translate(-0.27 -0.28)" style="fill-rule:evenodd"/><path id="Fill-340" d="M122.57,8.18h-5.2a.9.9,0,0,1,0-1.8h5.2a.9.9,0,1,1,0,1.8" transform="translate(-0.27 -0.28)" style="fill-rule:evenodd"/><path id="Fill-341" d="M120,10.78a.9.9,0,0,1-.9-.9V4.68a.9.9,0,0,1,1.8,0v5.2a.9.9,0,0,1-.9.9" transform="translate(-0.27 -0.28)" style="fill-rule:evenodd"/><path id="Fill-342" d="M51.27,28.68h-5.2a.9.9,0,0,1,0-1.8h5.2a.9.9,0,0,1,0,1.8" transform="translate(-0.27 -0.28)" style="fill-rule:evenodd"/><path id="Fill-343" d="M48.67,31.28a.9.9,0,0,1-.9-.9v-5.2a.9.9,0,0,1,1.8,0v5.2a.9.9,0,0,1-.9.9" transform="translate(-0.27 -0.28)" style="fill-rule:evenodd"/><path id="Fill-344" d="M184.07,63.78a.71.71,0,0,1-.6-.3.85.85,0,0,1,0-1.3l3.7-3.7a.92.92,0,1,1,1.3,1.3l-3.7,3.7a.91.91,0,0,1-.7.3" transform="translate(-0.27 -0.28)" style="fill-rule:evenodd"/><path id="Fill-345" d="M187.77,63.78a.71.71,0,0,1-.6-.3l-3.7-3.7a.92.92,0,1,1,1.3-1.3l3.7,3.7a.85.85,0,0,1,0,1.3,1.08,1.08,0,0,1-.7.3" transform="translate(-0.27 -0.28)" style="fill-rule:evenodd"/><path id="Fill-346" d="M5.77,77.48a.71.71,0,0,1-.6-.3.85.85,0,0,1,0-1.3l3.7-3.6a.85.85,0,0,1,1.3,0,.85.85,0,0,1,0,1.3l-3.7,3.7a1.45,1.45,0,0,1-.7.2" transform="translate(-0.27 -0.28)" style="fill-rule:evenodd"/><path id="Fill-347" d="M9.47,77.48a.71.71,0,0,1-.6-.3l-3.7-3.7a.85.85,0,0,1,0-1.3.85.85,0,0,1,1.3,0l3.7,3.7a.85.85,0,0,1,0,1.3,1.08,1.08,0,0,1-.7.3" transform="translate(-0.27 -0.28)" style="fill-rule:evenodd"/><path id="Fill-348" d="M14,59.48h21.2v-1.9H14Z" transform="translate(-0.27 -0.28)" style="fill-rule:evenodd"/><path id="Fill-349" d="M61,8.18h23.9V6.38H61Z" transform="translate(-0.27 -0.28)" style="fill-rule:evenodd"/><path id="Fill-350" d="M135.87,62h45.9v-1.9h-45.9Z" transform="translate(-0.27 -0.28)" style="fill-rule:evenodd"/><path id="Fill-351" d="M37,59.48h4.3v-1.9H37Z" transform="translate(-0.27 -0.28)" style="fill-rule:evenodd"/><path id="Fill-352" d="M115.87,15.58H137v-1.9h-21.1Z" transform="translate(-0.27 -0.28)" style="fill-rule:evenodd"/><path id="Fill-353" d="M138.77,15.58h4.4v-1.9h-4.4Z" transform="translate(-0.27 -0.28)" style="fill-rule:evenodd"/><path id="Fill-354" d="M156.37,42.38a1.6,1.6,0,1,1-1.6-1.6,1.64,1.64,0,0,1,1.6,1.6" transform="translate(-0.27 -0.28)" style="fill-rule:evenodd"/><path id="Fill-355" d="M72.57,67.78a1.6,1.6,0,1,1-1.6-1.6,1.58,1.58,0,0,1,1.6,1.6" transform="translate(-0.27 -0.28)" style="fill-rule:evenodd"/><path id="Fill-356" d="M180.57,25.28a.9.9,0,1,1-.9-.9.9.9,0,0,1,.9.9" transform="translate(-0.27 -0.28)" style="fill-rule:evenodd"/><path id="Fill-357" d="M69.17,1.48a1.2,1.2,0,1,1-2.4,0,1.13,1.13,0,0,1,1.1-1.2,1.31,1.31,0,0,1,1.3,1.2" transform="translate(-0.27 -0.28)" style="fill-rule:evenodd"/><path id="Fill-358" d="M148.07,125.38H57.37a9.24,9.24,0,0,1-9.2-9.2v-.4a9.24,9.24,0,0,1,9.2-9.2h90.7a9.24,9.24,0,0,1,9.2,9.2v.4a9.18,9.18,0,0,1-9.2,9.2" transform="translate(-0.27 -0.28)" style="fill:#fff;fill-rule:evenodd"/><path id="Fill-359" d="M85.17,92.48a14.3,14.3,0,1,1-14.3-14.3,14.3,14.3,0,0,1,14.3,14.3" transform="translate(-0.27 -0.28)" style="fill:#fff;fill-rule:evenodd"/><path id="Fill-360" d="M61,94.58a5.6,5.6,0,1,1-5.6-5.6,5.59,5.59,0,0,1,5.6,5.6" transform="translate(-0.27 -0.28)" style="fill:#fff;fill-rule:evenodd"/><path id="Fill-361" d="M58.27,101a8.3,8.3,0,1,1-8.3-8.3,8.28,8.28,0,0,1,8.3,8.3" transform="translate(-0.27 -0.28)" style="fill:#fff;fill-rule:evenodd"/><path id="Fill-362" d="M59.47,114.18A11.2,11.2,0,1,1,48.27,103a11.18,11.18,0,0,1,11.2,11.2" transform="translate(-0.27 -0.28)" style="fill:#fff;fill-rule:evenodd"/><path id="Fill-363" d="M48.17,126.28A12.25,12.25,0,0,1,36,114.08a12.1,12.1,0,0,1,5.2-10l1,1.5a10.34,10.34,0,0,0,5.9,18.8v1.9" transform="translate(-0.27 -0.28)" style="fill:#0073aa;fill-rule:evenodd"/><path id="Fill-364" d="M88.37,103.78a4.7,4.7,0,1,1-4.7-4.7,4.69,4.69,0,0,1,4.7,4.7" transform="translate(-0.27 -0.28)" style="fill:#fff;fill-rule:evenodd"/><path id="Fill-365" d="M145.87,91.88a13,13,0,1,1-13-13,13,13,0,0,1,13,13" transform="translate(-0.27 -0.28)" style="fill:#fff;fill-rule:evenodd"/><path id="Fill-366" d="M148.17,99.08c-.4,4.6-3.7,8.3-8.3,8.3a8.3,8.3,0,0,1,0-16.6c4.6,0,8.7,3.7,8.3,8.3" transform="translate(-0.27 -0.28)" style="fill:#fff;fill-rule:evenodd"/><path id="Fill-367" d="M139.87,104.78c-.4,4.6-3.7,8.3-8.3,8.3a8.3,8.3,0,0,1,0-16.6c4.6,0,8.7,3.8,8.3,8.3" transform="translate(-0.27 -0.28)" style="fill:#fff;fill-rule:evenodd"/><path id="Fill-368" d="M82.67,105c-.8,4.6-7.1,8.3-15.8,8.3s-15.8-3.7-15.8-8.3,7.1-8.3,15.8-8.3,16.6,3.7,15.8,8.3" transform="translate(-0.27 -0.28)" style="fill:#fff;fill-rule:evenodd"/><path id="Fill-369" d="M164.77,101.08c-.6,6.7-5.4,12.1-12.1,12.1a12.1,12.1,0,1,1,0-24.2c6.6,0,12.7,5.4,12.1,12.1" transform="translate(-0.27 -0.28)" style="fill:#fff;fill-rule:evenodd"/><path id="Fill-370" d="M161.47,113.68c-.6,6.5-5.2,11.7-11.7,11.7a11.7,11.7,0,0,1,0-23.4c6.5,0,12.2,5.2,11.7,11.7" transform="translate(-0.27 -0.28)" style="fill:#fff;fill-rule:evenodd"/><path id="Fill-371" d="M129.47,100.48a7.6,7.6,0,1,1-7.6-7.6,7.6,7.6,0,0,1,7.6,7.6" transform="translate(-0.27 -0.28)" style="fill:#fff;fill-rule:evenodd"/><path id="Fill-372" d="M119.67,107.18a4.4,4.4,0,1,1-4.4-4.4,4.31,4.31,0,0,1,4.4,4.4" transform="translate(-0.27 -0.28)" style="fill:#fff;fill-rule:evenodd"/><path id="Fill-373" d="M111.27,107.58h-1.8a5.38,5.38,0,0,1,5.4-5.4V104a3.59,3.59,0,0,0-3.6,3.6" transform="translate(-0.27 -0.28)" style="fill-rule:evenodd"/><path id="Fill-374" d="M101.37,110c0,2.8-4,5.1-8.9,5.1s-8.9-2.3-8.9-5.1,4-5.1,8.9-5.1,8.9,2.2,8.9,5.1" transform="translate(-0.27 -0.28)" style="fill:#fff;fill-rule:evenodd"/><path id="Fill-375" d="M152.87,89.28c0,3.3-5.6,12.1-5.6,8.1,0-3.3-6-2.7-6-6a6,6,0,0,1,6-6c3.3.1,5.6.6,5.6,3.9" transform="translate(-0.27 -0.28)" style="fill:#fff;fill-rule:evenodd"/><path id="Fill-376" d="M151.87,89.28a5.05,5.05,0,0,0-4.6-3,4.48,4.48,0,0,0-2,.4l-.7-1.7a6.71,6.71,0,0,1,2.8-.6,6.9,6.9,0,0,1,6.3,4.1l-1.8.8" transform="translate(-0.27 -0.28)" style="fill-rule:evenodd"/><path id="Fill-377" d="M123.07,101.68a13.85,13.85,0,0,1-4.1-9.8,13.45,13.45,0,0,1,4.1-9.8,13.85,13.85,0,0,1,9.8-4.1,13.45,13.45,0,0,1,9.8,4.1,14,14,0,0,1,4.1,9.8H145a12.12,12.12,0,0,0-3.5-8.5,11.87,11.87,0,0,0-8.5-3.5,12.12,12.12,0,0,0-8.5,3.5,11.87,11.87,0,0,0-3.5,8.5,12.12,12.12,0,0,0,3.5,8.5l-1.4,1.3" transform="translate(-0.27 -0.28)" style="fill-rule:evenodd"/><path id="Fill-378" d="M93.37,62h15.1v-6.4H93.37Z" transform="translate(-0.27 -0.28)" style="fill:#fff;fill-rule:evenodd"/><path id="Fill-379" d="M94.27,61.08h13.3v-4.5H94.27Zm-1.8,1.8h16.9v-8.2H92.47Z" transform="translate(-0.27 -0.28)" style="fill-rule:evenodd"/><path id="Fill-380" d="M77.77,55.68h14.3V24.58l-5.3,7.1a46.11,46.11,0,0,1-5.1,5.7,12.7,12.7,0,0,0-3.9,9.2v9.1" transform="translate(-0.27 -0.28)" style="fill:#e2e2e2;fill-rule:evenodd"/><path id="Fill-381" d="M90.87,54.78h-3.5V32.28l3.4-4.6v27.1" transform="translate(-0.27 -0.28)" style="fill:#c6c6c6;fill-rule:evenodd"/><path id="Fill-382" d="M123.47,56.28h-14.3V25.18l5.3,7.1a46.11,46.11,0,0,0,5.1,5.7,12.7,12.7,0,0,1,3.9,9.2v9.1" transform="translate(-0.27 -0.28)" style="fill:#e2e2e2;fill-rule:evenodd"/><path id="Fill-383" d="M114.17,32l-3.6-4.9v-1.7l3.6,4.9V32" transform="translate(-0.27 -0.28)" style="fill:#a6cfe4;fill-rule:evenodd"/><path id="Fill-384" d="M114.17,55.18h-3.6V27.08l3.6,4.9v23.2" transform="translate(-0.27 -0.28)" style="fill:#c6c6c6;fill-rule:evenodd"/><path id="Fill-385" d="M78.67,54.78h12.5V27.28l-3.7,5a59.27,59.27,0,0,1-5.2,5.8,11.8,11.8,0,0,0-3.6,8.5v8.2M93,56.58H76.77v-10a13.38,13.38,0,0,1,4.2-9.8,52.71,52.71,0,0,0,5-5.5l6.9-9.4v34.7" transform="translate(-0.27 -0.28)" style="fill-rule:evenodd"/><path id="Fill-386" d="M110.07,54.78h12.5v-8.3A11.8,11.8,0,0,0,119,38a42,42,0,0,1-5.2-5.8l-3.6-4.9v27.5Zm14.3,1.8h-16.1V21.78l6.9,9.4a38.09,38.09,0,0,0,5,5.5,14.13,14.13,0,0,1,4.2,9.8Z" transform="translate(-0.27 -0.28)" style="fill-rule:evenodd"/><path id="Fill-387" d="M110.57,58.78H90.87V18.08a15.44,15.44,0,0,1,6-12.2l1.8-1.4a3.32,3.32,0,0,1,4.2,0l1.9,1.5a14.78,14.78,0,0,1,5.8,11.8v41" transform="translate(-0.27 -0.28)" style="fill:#fff;fill-rule:evenodd"/><path id="Fill-388" d="M95.77,7.08l2.3-1.8a4.51,4.51,0,0,1,5.6,0l2.6,2-10.5-.2" transform="translate(-0.27 -0.28)" style="fill-rule:evenodd"/><path id="Fill-389" d="M90.87,18.08a15.44,15.44,0,0,1,6-12.2l1.8-1.4a3.5,3.5,0,0,1,4.2,0,3.5,3.5,0,0,0-4.2,0l-1.8,1.4a15.6,15.6,0,0,0-6,12.2" transform="translate(-0.27 -0.28)" style="fill:#afc9d6;fill-rule:evenodd"/><path id="Fill-390" d="M95.27,58.78H91V18.08a15.44,15.44,0,0,1,6-12.2l1.8-1.4a3.5,3.5,0,0,1,4.2,0l-.2.2a3.92,3.92,0,0,0-1.8-.4,4.19,4.19,0,0,0-2.8,1l-2.3,1.8,4,.1a15,15,0,0,0-4.6,10.9v40.7" transform="translate(-0.27 -0.28)" style="fill:#e2e2e2;fill-rule:evenodd"/><path id="Fill-391" d="M99.77,7.18l-4-.1,2.3-1.8a4.78,4.78,0,0,1,2.8-1,3.92,3.92,0,0,1,1.8.4l-1.5,1.2a8.64,8.64,0,0,0-1.4,1.3" transform="translate(-0.27 -0.28)" style="fill-rule:evenodd"/><path id="Fill-392" d="M106.67,26.48h-1.8a4.1,4.1,0,0,0-8.2,0h-1.8a5.91,5.91,0,0,1,5.9-5.9,6,6,0,0,1,5.9,5.9" transform="translate(-0.27 -0.28)" style="fill-rule:evenodd"/><path id="Fill-393" d="M91.87,57.88h17.9v-40a13.88,13.88,0,0,0-5.5-11.1l-2-1.5a2.55,2.55,0,0,0-3.1,0l-1.8,1.4a14.55,14.55,0,0,0-5.6,11.4v39.8Zm19.6,1.8H90V18.08a16.65,16.65,0,0,1,6.3-12.9l1.8-1.4a4.35,4.35,0,0,1,5.3,0l1.9,1.5a16,16,0,0,1,6.2,12.6Z" transform="translate(-0.27 -0.28)" style="fill-rule:evenodd"/><path id="Fill-394" d="M121.87,109a8.54,8.54,0,0,1-2.1-16.8l.5,1.8a6.71,6.71,0,0,0,1.7,13.2V109" transform="translate(-0.27 -0.28)" style="fill-rule:evenodd"/><path id="Fill-395" d="M78.47,105.58l-.9-1.6a13.4,13.4,0,1,0-20.1-11.6h-1.8a15.2,15.2,0,1,1,22.8,13.2" transform="translate(-0.27 -0.28)" style="fill-rule:evenodd"/><path id="Fill-396" d="M53.07,90.38l-.8-1.6a6.7,6.7,0,0,1,5-.5l-.5,1.7a5.88,5.88,0,0,0-3.7.4" transform="translate(-0.27 -0.28)" style="fill-rule:evenodd"/><path id="Fill-397" d="M83.67,109.48v-1.8a3.8,3.8,0,0,0,0-7.6v-1.8a5.59,5.59,0,0,1,5.6,5.6,5.66,5.66,0,0,1-5.6,5.6" transform="translate(-0.27 -0.28)" style="fill-rule:evenodd"/><path id="Fill-398" d="M119.57,114.78H86l9.7-11V63.28h10.4l-.4,37a7.41,7.41,0,0,0,2.7,5.7l11.2,8.8" transform="translate(-0.27 -0.28)" style="fill:#fff;fill-rule:evenodd"/><path id="Fill-399" d="M111.07,106.88H110a5,5,0,0,1-4.9-5V63.28h1.8v38.6a3.27,3.27,0,0,0,3.1,3.2h1.1v1.8" transform="translate(-0.27 -0.28)" style="fill-rule:evenodd"/><path id="Fill-400" d="M92.07,105.88h-3.7v-1.8h3.7a2.8,2.8,0,0,0,2.8-2.8v-38h1.8v38a4.65,4.65,0,0,1-4.6,4.6" transform="translate(-0.27 -0.28)" style="fill-rule:evenodd"/><path id="Fill-401" d="M90.27,122.48a7.51,7.51,0,0,1,.5-2.6,7.89,7.89,0,0,1,1.4-2.3,6.34,6.34,0,0,1,2.3-1.6,6.6,6.6,0,0,1,2.7-.6,7.51,7.51,0,0,1,2.6.5,7.89,7.89,0,0,1,2.3,1.4l-1.3,1.3a5,5,0,0,0-1.7-1.1,5.85,5.85,0,0,0-1.9-.4h-.1a6.47,6.47,0,0,0-2,.4,6.57,6.57,0,0,0-1.7,1.2,5,5,0,0,0-1.1,1.7,6.46,6.46,0,0,0-.4,1.9l-1.6.2" transform="translate(-0.27 -0.28)" style="fill-rule:evenodd"/><path id="Fill-402" d="M60.07,107.88a7.51,7.51,0,0,1,.5-2.6A7.89,7.89,0,0,1,62,103a6.34,6.34,0,0,1,2.3-1.6,6.6,6.6,0,0,1,2.7-.6,7.51,7.51,0,0,1,2.6.5,7.89,7.89,0,0,1,2.3,1.4l-1.3,1.3a5,5,0,0,0-1.7-1.1,5,5,0,0,0-3.9,0,6.57,6.57,0,0,0-1.7,1.2,5,5,0,0,0-1.1,1.7,6.46,6.46,0,0,0-.4,1.9l-1.7.2" transform="translate(-0.27 -0.28)" style="fill-rule:evenodd"/><path id="Fill-403" d="M138.47,104.68l-1.7-.6a6.28,6.28,0,0,0,.3-1.9,5.85,5.85,0,0,0-.4-1.9,6.57,6.57,0,0,0-1.2-1.7,6.19,6.19,0,0,0-1.7-1.1,4.22,4.22,0,0,0-1.9-.3,5.85,5.85,0,0,0-1.9.4l-.7-1.7a5.83,5.83,0,0,1,2.6-.6,7.46,7.46,0,0,1,2.6.4,5.13,5.13,0,0,1,2.3,1.5,6.34,6.34,0,0,1,1.6,2.3,5.83,5.83,0,0,1,.6,2.6,8.51,8.51,0,0,1-.5,2.6" transform="translate(-0.27 -0.28)" style="fill-rule:evenodd"/><path id="Fill-404" d="M98.87,116.68l-1.8-.2a6.22,6.22,0,0,1,.9-2.6,7.56,7.56,0,0,1,1.9-2.1,6.59,6.59,0,0,1,2.4-1.1,8.22,8.22,0,0,1,2.7-.2l-.2,1.8a6.73,6.73,0,0,0-2,.1,14.17,14.17,0,0,0-1.8.8,5,5,0,0,0-1.4,1.5,5.33,5.33,0,0,0-.7,2" transform="translate(-0.27 -0.28)" style="fill-rule:evenodd"/><path id="Fill-405" d="M138.87,117.88l-1.8-.2a6.22,6.22,0,0,1,.9-2.6,7.56,7.56,0,0,1,1.9-2.1,6.59,6.59,0,0,1,2.4-1.1,8.22,8.22,0,0,1,2.7-.2l-.2,1.8a4.52,4.52,0,0,0-2,.1,14.17,14.17,0,0,0-1.8.8,5,5,0,0,0-1.4,1.5,5.33,5.33,0,0,0-.7,2" transform="translate(-0.27 -0.28)" style="fill-rule:evenodd"/><path id="Fill-406" d="M118.67,126.28a6.6,6.6,0,0,1-2.6-1.1,6.06,6.06,0,0,1-1.9-2,7.71,7.71,0,0,1-1-2.5,6.15,6.15,0,0,1,0-2.7l1.8.4a6.7,6.7,0,0,0,0,2,4.84,4.84,0,0,0,.7,1.8,6.73,6.73,0,0,0,1.4,1.5,4.55,4.55,0,0,0,1.9.8l-.3,1.8" transform="translate(-0.27 -0.28)" style="fill-rule:evenodd"/><path id="Fill-407" d="M43.37,107.58a9.33,9.33,0,0,1-2.7-6.5,9.18,9.18,0,0,1,9.2-9.2,9.27,9.27,0,0,1,5.9,2.1l-1.2,1.3a7.37,7.37,0,0,0-9.9,10.9l-1.3,1.4" transform="translate(-0.27 -0.28)" style="fill:#0073aa;fill-rule:evenodd"/><path id="Fill-408" d="M158.07,112.88l-.8-1.6a12.52,12.52,0,0,0,6.5-10.2,9.81,9.81,0,0,0-2.6-7.4,12,12,0,0,0-11.3-3.5l-.4-1.8a13.91,13.91,0,0,1,13.1,4,11.6,11.6,0,0,1,3.1,8.7c-.5,5.4-3.3,9.7-7.6,11.8" transform="translate(-0.27 -0.28)" style="fill-rule:evenodd"/><path id="Fill-409" d="M149.67,126.28v-1.8c5.7,0,10.2-4.6,10.8-10.9a7.78,7.78,0,0,0-.4-3.4l1.7-.5a9.43,9.43,0,0,1,.4,4.1c-.5,7.2-5.8,12.5-12.5,12.5" transform="translate(-0.27 -0.28)" style="fill-rule:evenodd"/><path id="Fill-410" d="M52.57,98.28H20a1.69,1.69,0,0,0-1.7,1.7v25.4h32.6a3.54,3.54,0,0,0,3.5-3.5v-21.8a1.79,1.79,0,0,0-1.8-1.8" transform="translate(-0.27 -0.28)" style="fill:#c6c6c6;fill-rule:evenodd"/><path id="Fill-411" d="M51.57,126.28H17.37V99.68a2.26,2.26,0,0,1,2.3-2.3H41v1.8H19.67a.47.47,0,0,0-.5.5v24.8h32.4a1.9,1.9,0,0,0,1.9-1.9V99.78a.58.58,0,0,0-.6-.6h-2.2v-1.8h2.2a2.43,2.43,0,0,1,2.4,2.4v22.8a3.76,3.76,0,0,1-3.7,3.7" transform="translate(-0.27 -0.28)" style="fill-rule:evenodd"/><path id="Fill-412" d="M41.47,88.18l7.2,7.2v25.1a2.11,2.11,0,0,1-2.1,2.1H25.07a2.11,2.11,0,0,1-2.1-2.1V90.18a2.11,2.11,0,0,1,2.1-2.1h16.4" transform="translate(-0.27 -0.28)" style="fill:#fff;fill-rule:evenodd"/><path id="Fill-413" d="M41.47,95.38v-7.2l7.2,7.2h-7.2" transform="translate(-0.27 -0.28)" style="fill:#62a6cf;fill-rule:evenodd"/><path id="Fill-414" d="M48.67,96.28h-6.5a1.58,1.58,0,0,1-1.6-1.6v-6.5h1.8v6.3h6.3v1.8" transform="translate(-0.27 -0.28)" style="fill:#0073aa;fill-rule:evenodd"/><path id="Fill-415" d="M46.57,123.48H25.07v-1.8h21.5a1.11,1.11,0,0,0,1.1-1.1V95.78L41,89.08H25a1.11,1.11,0,0,0-1.1,1.1v9.7h-1.8v-9.7a3,3,0,0,1,3-3h16.7l7.7,7.7v25.5a3,3,0,0,1-2.9,3.1" transform="translate(-0.27 -0.28)" style="fill-rule:evenodd"/><path id="Fill-416" d="M45.67,86.08l7.2,7.2v25.1a2.11,2.11,0,0,1-2.1,2.1H29.27a2.11,2.11,0,0,1-2.1-2.1V88.18a2.11,2.11,0,0,1,2.1-2.1h16.4" transform="translate(-0.27 -0.28)" style="fill:#c6c6c6;fill-rule:evenodd"/><path id="Fill-417" d="M45.67,93.28v-7.2l7.2,7.2h-7.2" transform="translate(-0.27 -0.28)" style="fill:#62a6cf;fill-rule:evenodd"/><path id="Fill-418" d="M52.87,94.18h-6.5a1.58,1.58,0,0,1-1.6-1.6v-6.5h1.8v6.3h6.3v1.8" transform="translate(-0.27 -0.28)" style="fill-rule:evenodd"/><path id="Fill-419" d="M31.07,97.68h18.3v-1.8H31.07Z" transform="translate(-0.27 -0.28)" style="fill:#0073aa;fill-rule:evenodd"/><path id="Fill-420" d="M31.07,101.78h18.3V100H31.07Z" transform="translate(-0.27 -0.28)" style="fill:#0073aa;fill-rule:evenodd"/><path id="Fill-421" d="M31.07,105.88h18.3V104H31.07Z" transform="translate(-0.27 -0.28)" style="fill:#0073aa;fill-rule:evenodd"/><path id="Fill-422" d="M31.07,109.88h18.3v-1.8H31.07Z" transform="translate(-0.27 -0.28)" style="fill:#0073aa;fill-rule:evenodd"/><path id="Fill-423" d="M50.77,121.38h-.9v-1.8h.9a1.11,1.11,0,0,0,1.1-1.1V93.68L45.27,87h-16a1.11,1.11,0,0,0-1.1,1.1v14.5h-1.8V88.18a3,3,0,0,1,3-3h16.7l7.7,7.7v25.5a3.08,3.08,0,0,1-3,3" transform="translate(-0.27 -0.28)" style="fill-rule:evenodd"/><path id="Fill-424" d="M49.87,89.18l7.2,7.2v25.1a2.11,2.11,0,0,1-2.1,2.1H33.47a2.11,2.11,0,0,1-2.1-2.1V91.28a2.11,2.11,0,0,1,2.1-2.1h16.4" transform="translate(-0.27 -0.28)" style="fill:#fff;fill-rule:evenodd"/><path id="Fill-425" d="M49.87,96.38v-7.2l7.1,7.2h-7.1" transform="translate(-0.27 -0.28)" style="fill:#e2e2e2;fill-rule:evenodd"/><path id="Fill-426" d="M57,97.28h-6.5a1.58,1.58,0,0,1-1.6-1.6v-6.5h1.8v6.3H57v1.8" transform="translate(-0.27 -0.28)" style="fill-rule:evenodd"/><path id="Fill-427" d="M35.27,100.88h18.3V99H35.27Z" transform="translate(-0.27 -0.28)" style="fill-rule:evenodd"/><path id="Fill-428" d="M35.27,104.88h18.3v-1.8H35.27Z" transform="translate(-0.27 -0.28)" style="fill-rule:evenodd"/><path id="Fill-429" d="M35.27,109h18.3v-1.8H35.27Z" transform="translate(-0.27 -0.28)" style="fill-rule:evenodd"/><path id="Fill-430" d="M35.27,113.08h18.3v-1.8H35.27Z" transform="translate(-0.27 -0.28)" style="fill-rule:evenodd"/><path id="Fill-431" d="M55,124.48h-3.7v-1.8H55a1.11,1.11,0,0,0,1.1-1.1V96.78l-6.7-6.7h-16a1.11,1.11,0,0,0-1.1,1.1v11.4h-1.8V91.28a3,3,0,0,1,3-3h16.7l7.7,7.7v25.5a2.86,2.86,0,0,1-2.9,3" transform="translate(-0.27 -0.28)" style="fill-rule:evenodd"/><path id="Fill-432" d="M51.47,125.38H17.07a1.54,1.54,0,0,1-1.5-1.5v-21.4a1.22,1.22,0,0,1,1.2-1.2h5.9a1.38,1.38,0,0,1,1.1.6l1.5,2.4h21.9a1.37,1.37,0,0,1,1.4,1.4v16.8a2.83,2.83,0,0,0,2.9,2.9" transform="translate(-0.27 -0.28)" style="fill:#fff;fill-rule:evenodd"/><path id="Fill-433" d="M48.57,118.48h-33v5a1.72,1.72,0,0,0,1.5,1.9h34.5c-1.9,0-2.9-2-2.9-3.7v-3.2Z" transform="translate(-0.27 -0.28)" style="fill:#e2e2e2;fill-rule:evenodd"/><path id="Fill-434" d="M51.47,126.28a3.73,3.73,0,0,1-3.8-3.8v-16.8a.47.47,0,0,0-.5-.5H24.77l-1.8-2.8c-.1-.1-.2-.2-.3-.2h-5.9a.32.32,0,0,0-.3.3v22.8h-1.8v-22.8a2.22,2.22,0,0,1,2.2-2.2h5.9a2.23,2.23,0,0,1,1.8,1l1.3,2h21.4a2.33,2.33,0,0,1,2.3,2.3v16.8a1.93,1.93,0,0,0,2,2v1.9" transform="translate(-0.27 -0.28)" style="fill-rule:evenodd"/><path id="Fill-435" d="M5.77,126.28h193.9v-1.8H5.77Z" transform="translate(-0.27 -0.28)" style="fill-rule:evenodd"/><path id="Fill-436" d="M.27,126.28h3.3v-1.8H.27Z" transform="translate(-0.27 -0.28)" style="fill-rule:evenodd"/></symbol>


<symbol id="icon-child" width="201" height="120.4" data-name="Layer 1" xmlns="http://www.w3.org/2000/svg" viewBox="0 0 201 120.4"><path id="Fill-183" d="M188.17,125.36V36.56a4.52,4.52,0,0,0-4.3-4.8h-63.7a4.59,4.59,0,0,0-4.3,4.8v88.9h72.3" transform="translate(0.93 -5.86)" style="fill:#fff;fill-rule:evenodd"/><path id="Fill-184" d="M115.87,35.26a3.59,3.59,0,0,1,3.6-3.6h65a3.59,3.59,0,0,1,3.6,3.6v7.6h-72.3v-7.6Z" transform="translate(0.93 -5.86)" style="fill:#fff;fill-rule:evenodd"/><path id="Fill-185" d="M116.27,44h71.9v-1.8h-71.9Z" transform="translate(0.93 -5.86)" style="fill-rule:evenodd"/><path id="Fill-186" d="M124.17,38.76h1.7V37h-1.7Z" transform="translate(0.93 -5.86)" style="fill-rule:evenodd"/><path id="Fill-187" d="M129.07,38.76h1.7V37h-1.7Z" transform="translate(0.93 -5.86)" style="fill-rule:evenodd"/><path id="Fill-188" d="M134,38.76h1.7V37H134Z" transform="translate(0.93 -5.86)" style="fill-rule:evenodd"/><path id="Fill-189" d="M125.57,72.26h52.9V51.36h-52.9Z" transform="translate(0.93 -5.86)" style="fill:#dbdbdb;fill-rule:evenodd"/><path id="Fill-190" d="M125.57,106.36h16.1V85.46h-16.1Z" transform="translate(0.93 -5.86)" style="fill:#9cc9e1;fill-rule:evenodd"/><path id="Fill-191" d="M144,106.36h16.1V85.46H144Z" transform="translate(0.93 -5.86)" style="fill:#d1e8f0;fill-rule:evenodd"/><path id="Fill-194" d="M189.07,70.76h-1.8V36.56a3.63,3.63,0,0,0-3.4-3.9h-63.7a3.7,3.7,0,0,0-3.4,3.9v17H115v-17c0-3.2,2.3-5.8,5.2-5.8h63.7c2.9,0,5.2,2.6,5.2,5.8v34.2" transform="translate(0.93 -5.86)" style="fill-rule:evenodd"/><path id="Fill-195" d="M187.27,125.36h1.8V94.16h-1.8Z" transform="translate(0.93 -5.86)" style="fill-rule:evenodd"/><path id="Fill-196" d="M98,16.16h-5.2a.9.9,0,0,1,0-1.8H98a.9.9,0,1,1,0,1.8" transform="translate(0.93 -5.86)" style="fill-rule:evenodd"/><path id="Fill-197" d="M95.37,18.76a.9.9,0,0,1-.9-.9v-5.2a.9.9,0,1,1,1.8,0v5.2a.9.9,0,0,1-.9.9" transform="translate(0.93 -5.86)" style="fill-rule:evenodd"/><path id="Fill-198" d="M9,81.76H3.77a.9.9,0,1,1,0-1.8H9a.9.9,0,1,1,0,1.8" transform="translate(0.93 -5.86)" style="fill-rule:evenodd"/><path id="Fill-199" d="M6.37,84.36a.9.9,0,0,1-.9-.9v-5.2a.9.9,0,1,1,1.8,0v5.2a.9.9,0,0,1-.9.9" transform="translate(0.93 -5.86)" style="fill-rule:evenodd"/><path id="Fill-200" d="M189.67,11.36a.71.71,0,0,1-.6-.3.85.85,0,0,1,0-1.3l3.6-3.6a.85.85,0,0,1,1.3,0,.85.85,0,0,1,0,1.3l-3.6,3.6a1.33,1.33,0,0,1-.7.3" transform="translate(0.93 -5.86)" style="fill-rule:evenodd"/><path id="Fill-201" d="M193.27,11.36a.71.71,0,0,1-.6-.3l-3.6-3.6a.85.85,0,0,1,0-1.3.85.85,0,0,1,1.3,0l3.6,3.6a.85.85,0,0,1,0,1.3,1.08,1.08,0,0,1-.7.3" transform="translate(0.93 -5.86)" style="fill-rule:evenodd"/><path id="Fill-204" d="M25.07,16.16h61.3v-1.8H25.07Z" transform="translate(0.93 -5.86)" style="fill-rule:evenodd"/><path id="Fill-206" d="M-.93,60.06h30.4v-1.8H-.93Z" transform="translate(0.93 -5.86)" style="fill-rule:evenodd"/><path id="Fill-210" d="M9.57,50.86A1.6,1.6,0,1,1,8,49.26a1.58,1.58,0,0,1,1.6,1.6" transform="translate(0.93 -5.86)" style="fill-rule:evenodd"/><path id="Fill-211" d="M141.37,15.26a1.6,1.6,0,1,1-1.6-1.6,1.64,1.64,0,0,1,1.6,1.6" transform="translate(0.93 -5.86)" style="fill-rule:evenodd"/><path id="Fill-212" d="M178.87,22.86a1.6,1.6,0,1,1-1.6-1.6,1.58,1.58,0,0,1,1.6,1.6" transform="translate(0.93 -5.86)" style="fill-rule:evenodd"/><path id="Fill-214" d="M45.57,125.36H41a.65.65,0,0,1-.6-.6V59l.1-.3,2.3-4.9a.59.59,0,0,1,1.1,0l2.3,4.9.1.3v65.8a.86.86,0,0,1-.7.6" transform="translate(0.93 -5.86)" style="fill:#fff;fill-rule:evenodd"/><path id="Fill-215" d="M40.37,119.06h5.8v-58h-6.7Z" transform="translate(0.93 -5.86)" style="fill:#b7b7b7;fill-rule:evenodd"/><path id="Fill-216" d="M45.27,125.36V59.06l-2-4.3-2,4.3v23.2h-1.8V58.66l2.6-5.8a1.21,1.21,0,0,1,1.2-.7,1.52,1.52,0,0,1,1.2.7l2.7,5.7v66.8Z" transform="translate(0.93 -5.86)" style="fill-rule:evenodd"/><path id="Fill-217" d="M39.47,125.16h1.8v-23.8h-1.8Z" transform="translate(0.93 -5.86)" style="fill-rule:evenodd"/><path id="Fill-218" d="M40.17,62h6v-1.8h-6Z" transform="translate(0.93 -5.86)" style="fill-rule:evenodd"/><path id="Fill-220" d="M57,125.46V38.36h-6.1a.88.88,0,0,0-.8.9v85.4a.88.88,0,0,0,.8.9H57Z" transform="translate(0.93 -5.86)" style="fill:#dbdbdb;fill-rule:evenodd"/><path id="Fill-221" d="M51.57,124.46h-1.8V39.16a1.9,1.9,0,0,1,1.9-1.9h11.8a1.9,1.9,0,0,1,1.9,1.9v14h-1.8v-14l-11.8-.1-.2,85.4" transform="translate(0.93 -5.86)" style="fill-rule:evenodd"/><path id="Fill-223" d="M50.67,110H57v-1.8h-6.3Z" transform="translate(0.93 -5.86)" style="fill-rule:evenodd"/><path id="Fill-224" d="M50.67,100.86H57v-1.8h-6.3Z" transform="translate(0.93 -5.86)" style="fill-rule:evenodd"/><path id="Fill-225" d="M50.67,91.66H57v-1.8h-6.3Z" transform="translate(0.93 -5.86)" style="fill-rule:evenodd"/><path id="Fill-226" d="M50.67,82.56H57v-1.9h-6.3Z" transform="translate(0.93 -5.86)" style="fill-rule:evenodd"/><path id="Fill-227" d="M50.67,73.36H57v-1.8h-6.3Z" transform="translate(0.93 -5.86)" style="fill-rule:evenodd"/><path id="Fill-228" d="M50.67,64.16H57v-1.8h-6.3Z" transform="translate(0.93 -5.86)" style="fill-rule:evenodd"/><path id="Fill-229" d="M50.67,55.06H57v-1.9h-6.3Z" transform="translate(0.93 -5.86)" style="fill-rule:evenodd"/><path id="Fill-230" d="M50.67,46H57v-1.8h-6.3Z" transform="translate(0.93 -5.86)" style="fill-rule:evenodd"/><path id="Fill-231" d="M147.67,121.66H58.07a1.16,1.16,0,0,1-1.2-1.2V56.76a1.16,1.16,0,0,1,1.2-1.2h89.6a1.16,1.16,0,0,1,1.2,1.2v63.7a1.22,1.22,0,0,1-1.2,1.2" transform="translate(0.93 -5.86)" style="fill:#b7b7b7;fill-rule:evenodd"/><path id="Fill-232" d="M123.17,56.46h6.3v-1.8h-6.3Z" transform="translate(0.93 -5.86)" style="fill-rule:evenodd"/><path id="Fill-233" d="M146.57,122.66H59.07a3.16,3.16,0,0,1-3.2-3.2V57.86a3.16,3.16,0,0,1,3.2-3.2h62.4v1.8H59.07a1.37,1.37,0,0,0-1.4,1.4v61.6a1.37,1.37,0,0,0,1.4,1.4h87.4a1.37,1.37,0,0,0,1.4-1.4h1.8a3.07,3.07,0,0,1-3.1,3.2" transform="translate(0.93 -5.86)" style="fill-rule:evenodd"/><path id="Fill-234" d="M131.57,56.46h12.3v-1.8h-12.3Z" transform="translate(0.93 -5.86)" style="fill-rule:evenodd"/><path id="Fill-235" d="M61.27,114.46h82.6V60.76H61.27Z" transform="translate(0.93 -5.86)" style="fill:#fff;fill-rule:evenodd"/><path id="Fill-236" d="M147.27,125.36H57.47a4.32,4.32,0,0,1-4.3-3.7l-.6-3.9h41.5l1.6,2.3h11.5l1.7-2.3h43.9l-.6,3.4a5,5,0,0,1-4.9,4.2" transform="translate(0.93 -5.86)" style="fill:#fff;fill-rule:evenodd"/><path id="Fill-237" d="M53.47,118.66l.5,2.8a3.46,3.46,0,0,0,3.5,2.9h89.8a4,4,0,0,0,4-3.4l.4-2.3h-42.3l-1.7,2.3H95.17l-1.6-2.3H53.47m93.8,7.6H57.47a5.27,5.27,0,0,1-5.2-4.4l-.8-5h43.2l1.6,2.3h10.6l1.7-2.3H154l-.7,4.4a6.27,6.27,0,0,1-6,5" transform="translate(0.93 -5.86)" style="fill-rule:evenodd"/><path id="Fill-239" d="M153.77,116.86h-4.9v0h4.9" transform="translate(0.93 -5.86)" style="fill:#b4d7e7;fill-rule:evenodd"/><path id="Fill-241" d="M143.87,56.46h-.4l-.5-1.8h.9v1.8" transform="translate(0.93 -5.86)" style="fill-rule:evenodd"/><path id="Fill-242" d="M143.77,114.46h.1V67.16h-.1Z" transform="translate(0.93 -5.86)" style="fill:#b4d7e7;fill-rule:evenodd"/><path id="Fill-243" d="M150.37,125.36h-6.6v-.9h3.5a4,4,0,0,0,4-3.4l.4-2.3h-7.9v-1.9h10.1l-.7,4.4a6.41,6.41,0,0,1-2.8,4.1" transform="translate(0.93 -5.86)" style="fill-rule:evenodd"/><path id="Fill-244" d="M154.27,69.26h3.3l5-15.1-6.8-12h-1.1l-.1,11.5a8.26,8.26,0,0,1,1.3.7,2.19,2.19,0,1,1-3.1,0,4.13,4.13,0,0,1,1.1-.7l.3-11.5h-1l-7,12,4.9,15.1h3.2" transform="translate(0.93 -5.86)" style="fill:#fff;fill-rule:evenodd"/><path id="Fill-245" d="M154.17,54.46a5.58,5.58,0,0,0-.8.5,1.49,1.49,0,0,0-.4.9,1.09,1.09,0,0,0,.4.9,1.49,1.49,0,0,0,.9.4,1.09,1.09,0,0,0,.9-.4,1.27,1.27,0,0,0,0-1.8c.1-.1-.1-.2-1-.5Zm.2,13.9H157l4.7-14.1-6-10.6-.1,9.4c.6.3.9.4,1,.6a3.14,3.14,0,0,1,0,4.4,3.11,3.11,0,0,1-4.4-4.4,5.55,5.55,0,0,1,.8-.6l.2-9.3-6.1,10.4,4.5,14.1Zm3.9,1.8h-7.9L145.17,54l7.5-12.8h3.7l7.3,12.8-5.4,16.2Z" transform="translate(0.93 -5.86)" style="fill-rule:evenodd"/><path id="Fill-246" d="M147.07,125.36h14.6V68.16h-14.6Z" transform="translate(0.93 -5.86)" style="fill:#dbdbdb;fill-rule:evenodd"/><path id="Fill-247" d="M154.37,125.36h7.1V68.16h-7.1Z" transform="translate(0.93 -5.86)" style="fill:#b7b7b7;fill-rule:evenodd"/><path id="Fill-248" d="M153.47,53.56h1.8V42.06h-1.8Z" transform="translate(0.93 -5.86)" style="fill-rule:evenodd"/><path id="Fill-249" d="M154.37,54.26a1.7,1.7,0,1,0,1.7,1.7A1.83,1.83,0,0,0,154.37,54.26Zm0,5.2a3.5,3.5,0,1,1,3.5-3.5A3.54,3.54,0,0,1,154.37,59.46Z" transform="translate(0.93 -5.86)" style="fill-rule:evenodd"/><path id="Fill-250" d="M160.67,125.36h1.9v-17.8h-1.9Z" transform="translate(0.93 -5.86)" style="fill-rule:evenodd"/><path id="Fill-251" d="M148,125.36h-1.8V67.16h16.4v4.9h-1.9v-3H148v56.3" transform="translate(0.93 -5.86)" style="fill-rule:evenodd"/><path id="Fill-252" d="M176.67,72.06H181l13.1,3.1a2.67,2.67,0,0,1,2,2.6v.8h-19.4v-6.5" transform="translate(0.93 -5.86)" style="fill:#dbdbdb;fill-rule:evenodd"/><path id="Fill-253" d="M176.67,93H181l13.1-3.1a2.67,2.67,0,0,0,2-2.6v-.8h-19.4V93" transform="translate(0.93 -5.86)" style="fill:#dbdbdb;fill-rule:evenodd"/><path id="Fill-254" d="M177.57,77.66h17.5a1.7,1.7,0,0,0-1.4-1.6l-13-3.1h-3.3v4.7Zm19.4,1.9h-21.2v-8.3h5.4l13.1,3.1a3.55,3.55,0,0,1,2.7,3.5Z" transform="translate(0.93 -5.86)" style="fill-rule:evenodd"/><path id="Fill-255" d="M177.57,92.06h3.3l13-3.1a1.6,1.6,0,0,0,1.3-1.6h-17.6Zm3.4,1.8h-5.3v-8.3h21.2v1.7a3.55,3.55,0,0,1-2.7,3.5Z" transform="translate(0.93 -5.86)" style="fill-rule:evenodd"/><path id="Fill-256" d="M166.57,85.16h-3.1l-9.3,2.2a1.9,1.9,0,0,0-1.5,1.8v.7h13.8v-4.7" transform="translate(0.93 -5.86)" style="fill:#dbdbdb;fill-rule:evenodd"/><path id="Fill-257" d="M166.57,78.76h-3.1l-9.3-2.2a1.93,1.93,0,0,1-1.5-1.9v-.6h13.8v4.7" transform="translate(0.93 -5.86)" style="fill:#dbdbdb;fill-rule:evenodd"/><path id="Fill-258" d="M153.67,89h12v-2.8h-2l-9.2,2.2A.76.76,0,0,0,153.67,89Zm13.8,1.8h-15.7v-1.5a2.77,2.77,0,0,1,2.2-2.7l9.5-2.2h4Z" transform="translate(0.93 -5.86)" style="fill-rule:evenodd"/><path id="Fill-259" d="M163.67,77.86h2v-2.8h-12a.86.86,0,0,0,.7.6Zm3.8,1.8h-4.2l-9.3-2.2a2.77,2.77,0,0,1-2.2-2.7v-1.5h15.7Z" transform="translate(0.93 -5.86)" style="fill-rule:evenodd"/><path id="Fill-260" d="M166,125.36h10.7V72.06H166Z" transform="translate(0.93 -5.86)" style="fill:#fff;fill-rule:evenodd"/><path id="Fill-261" d="M177.57,125.36h-1.9V73h-8.8v52.4h-1.8V71.16h12.5v54.2" transform="translate(0.93 -5.86)" style="fill-rule:evenodd"/><path id="Fill-262" d="M166,78.76h4.8V77H166Z" transform="translate(0.93 -5.86)" style="fill-rule:evenodd"/><path id="Fill-263" d="M166,83.26h4.8v-1.8H166Z" transform="translate(0.93 -5.86)" style="fill-rule:evenodd"/><path id="Fill-264" d="M166,87.76h4.8V86H166Z" transform="translate(0.93 -5.86)" style="fill-rule:evenodd"/><path id="Fill-265" d="M166,114.66h4.8v-1.8H166Z" transform="translate(0.93 -5.86)" style="fill-rule:evenodd"/><path id="Fill-266" d="M166,119.16h4.8v-1.8H166Z" transform="translate(0.93 -5.86)" style="fill-rule:evenodd"/><path id="Fill-267" d="M166,123.66h4.8v-1.8H166Z" transform="translate(0.93 -5.86)" style="fill-rule:evenodd"/><path id="Fill-268" d="M163.47,111h13.8V93.06h-13.8Z" transform="translate(0.93 -5.86)" style="fill:#b7b7b7;fill-rule:evenodd"/><path id="Fill-269" d="M164.37,110.06h12V94h-12Zm-1.8,1.8h15.6V92.16h-15.6Z" transform="translate(0.93 -5.86)" style="fill-rule:evenodd"/><path id="Fill-270" d="M159.07,105.46h3v-7.2h-3Z" transform="translate(0.93 -5.86)" style="fill:#dbdbdb;fill-rule:evenodd"/><path id="Fill-271" d="M160,104.56h1.2v-5.4H160Zm-1.8,1.8H163v-9h-4.8Z" transform="translate(0.93 -5.86)" style="fill-rule:evenodd"/><path id="Fill-272" d="M193,80.86a1.5,1.5,0,1,0,1.5,1.5A1.42,1.42,0,0,0,193,80.86Zm0,4.9a3.35,3.35,0,1,1,3.4-3.3A3.35,3.35,0,0,1,193,85.76Z" transform="translate(0.93 -5.86)" style="fill-rule:evenodd"/><path id="Fill-273" d="M30.27,125.36h-1.9a1.16,1.16,0,0,1-1.2-1.2V120a1.16,1.16,0,0,1,1.2-1.2h1.9a1.16,1.16,0,0,1,1.2,1.2v4.2a1.16,1.16,0,0,1-1.2,1.2" transform="translate(0.93 -5.86)" style="fill:#b7b7b7;fill-rule:evenodd"/><path id="Fill-274" d="M28.37,119.66a.27.27,0,0,0-.3.3v4.2a.27.27,0,0,0,.3.3h1.9a.27.27,0,0,0,.3-.3V120a.27.27,0,0,0-.3-.3Zm1.9,6.6h-1.9a2.05,2.05,0,0,1-2.1-2.1V120a2.05,2.05,0,0,1,2.1-2.1h1.9a2.05,2.05,0,0,1,2.1,2.1v4.2A2,2,0,0,1,30.27,126.26Z" transform="translate(0.93 -5.86)" style="fill-rule:evenodd"/><path id="Fill-275" d="M44,91.66a14.5,14.5,0,1,0-21.7,12.6v14.3l2.1,3.9h10l2.4-3.9v-14.3A14.54,14.54,0,0,0,44,91.66" transform="translate(0.93 -5.86)" style="fill:#fff;fill-rule:evenodd"/><path id="Fill-276" d="M22.17,108.26v11.2l2.1,3h10l2.4-3v-11.2H22.17" transform="translate(0.93 -5.86)" style="fill:#dbdbdb;fill-rule:evenodd"/><path id="Fill-277" d="M36.67,118.56l-2.4,3.9h-10l-2.1-3.9h14.5" transform="translate(0.93 -5.86)" style="fill:#b7b7b7;fill-rule:evenodd"/><path id="Fill-278" d="M34.77,123.36h-11l-2.4-4.6v-14a15.41,15.41,0,0,1-3.7-23l1.4,1.1a13.43,13.43,0,0,0-3.2,8.8,13.69,13.69,0,0,0,6.8,11.8l.5.3v14.6l1.7,3.2h8.9l2-3.3v-14.5l.5-.3a13.61,13.61,0,0,0-6.8-25.4,12.55,12.55,0,0,0-5.1,1l-.7-1.7a16.16,16.16,0,0,1,5.8-1.1,15.4,15.4,0,0,1,8.1,28.5v14.1l-2.8,4.5" transform="translate(0.93 -5.86)" style="fill-rule:evenodd"/><path id="Fill-279" d="M20.47,81.46l-1.3-1.3a8.5,8.5,0,0,1,2.3-1.7l.3-.2.9,1.6-.3.2a6.69,6.69,0,0,0-1.9,1.4" transform="translate(0.93 -5.86)" style="fill-rule:evenodd"/><path id="Fill-280" d="M20,109.56h18.9v-1.8H20Z" transform="translate(0.93 -5.86)" style="fill-rule:evenodd"/><path id="Fill-281" d="M20,112.86h18.9v-1.8H20Z" transform="translate(0.93 -5.86)" style="fill-rule:evenodd"/><path id="Fill-282" d="M20,116.16h18.9v-1.8H20Z" transform="translate(0.93 -5.86)" style="fill-rule:evenodd"/><path id="Fill-283" d="M20,119.46h18.9v-1.8H20Z" transform="translate(0.93 -5.86)" style="fill-rule:evenodd"/><path id="Fill-284" d="M37.07,91.66a7.6,7.6,0,1,1-7.6-7.6,7.6,7.6,0,0,1,7.6,7.6" transform="translate(0.93 -5.86)" style="fill:#dbdbdb;fill-rule:evenodd"/><path id="Fill-320" d="M8,126.26h192.1v-1.8H8Z" transform="translate(0.93 -5.86)" style="fill-rule:evenodd"/><path id="Fill-321" d="M.27,126.26h5.5v-1.8H.27Z" transform="translate(0.93 -5.86)" style="fill-rule:evenodd"/><path d="M118.29,81.55l-2.73-4.9V74.34A8.09,8.09,0,0,0,108,79.47a4.65,4.65,0,0,1-4.32,3H97.78a4.62,4.62,0,0,0-4.35,3L89.18,97.19h3.4l.07-.2a10.07,10.07,0,0,1,19.2,0l.07.21h3.38l-3.8-10.14,1.75-5.2,3.22,2.31L118,83A1.15,1.15,0,0,0,118.29,81.55Z" transform="translate(0.93 -5.86)" style="fill:#dbdbdb"/><path d="M94.63,83l-.48,0a6.36,6.36,0,0,0-6.36,6.36H84.9a6.94,6.94,0,0,1,6.94-6.94,6.77,6.77,0,0,1,3.27.84" transform="translate(0.93 -5.86)" style="fill:#dbdbdb"/><path d="M89.18,97.05l4.25-11.7a4.63,4.63,0,0,1,4.35-3h5.93a4.64,4.64,0,0,0,4.32-3,8.1,8.1,0,0,1,7.53-5.12v2.31l2.73,4.9a1.15,1.15,0,0,1-.31,1.49L116.47,84l-3.22-2.32-1.75,5.21,3.8,10.13" transform="translate(0.93 -5.86)" style="fill:none;stroke:#000;stroke-linecap:round;stroke-linejoin:round;stroke-width:1.5px"/><path d="M112.48,98.58l-.63-1.72h0a10.07,10.07,0,0,0-19.2,0h0L92,98.58" transform="translate(0.93 -5.86)" style="fill:none;stroke:#000;stroke-linecap:round;stroke-linejoin:round;stroke-width:1.5px"/><path d="M94.63,82.91a3.87,3.87,0,0,0-.48,0,6.36,6.36,0,0,0-6.36,6.36H84.9a6.89,6.89,0,0,1,10.21-6.09" transform="translate(0.93 -5.86)" style="fill:none;stroke:#000;stroke-linecap:round;stroke-linejoin:round;stroke-width:1.5px"/><path d="M86.42,95.05a24.66,24.66,0,0,0,31.66,0" transform="translate(0.93 -5.86)" style="fill:none;stroke:#000;stroke-linecap:round;stroke-linejoin:round;stroke-width:1.5px"/></symbol>




<symbol id="icon-plugins" width="201" height="120.4" data-name="Layer 1" xmlns="http://www.w3.org/2000/svg" viewBox="0 0 201 120.4"><defs/><path d="M11.93 119.5V30.7a4.52 4.52 0 014.3-4.8h63.7a4.59 4.59 0 014.3 4.8v88.9h-72.3" fill="#fff" fill-rule="evenodd"/><path d="M84.2 29.4a3.59 3.59 0 00-3.6-3.6h-65a3.59 3.59 0 00-3.6 3.6V37h72.3v-7.6z" fill="#fff" fill-rule="evenodd"/><path d="M83.8 38.14H11.93v-1.8h71.9zM75.93 32.9h-1.7v-1.76h1.7zM71 32.9h-1.7v-1.76H71zM66.1 32.9h-1.7v-1.76h1.7z" fill-rule="evenodd"/><path d="M74.5 66.4H21.6V45.5h52.9z" fill="#dbdbdb" fill-rule="evenodd"/><path d="M74.5 100.5H58.4V79.6h16.1z" fill="#9cc9e1" fill-rule="evenodd"/><path d="M56.1 100.5H40V79.6h16.1z" fill="#d1e8f0" fill-rule="evenodd"/><path d="M11 64.9h1.8V30.7a3.63 3.63 0 013.4-3.9h63.73a3.7 3.7 0 013.4 3.9v17h1.8v-17c0-3.2-2.3-5.8-5.2-5.8H16.2c-2.9 0-5.2 2.6-5.2 5.8v34.2M12.8 119.5H11V88.3h1.8zM102.1 10.3h5.2a.9.9 0 100-1.8h-5.2a.9.9 0 000 1.8" fill-rule="evenodd"/><path d="M104.7 12.9a.9.9 0 00.9-.9V6.8a.9.9 0 00-1.8 0V12a.9.9 0 00.9.9M191.1 75.9h5.2a.9.9 0 000-1.8h-5.2a.9.9 0 000 1.8" fill-rule="evenodd"/><path d="M193.7 78.5a.9.9 0 00.9-.9v-5.2a.9.9 0 00-1.8 0v5.2a.9.9 0 00.9.9M10.4 5.5a.71.71 0 00.6-.3.85.85 0 000-1.3L7.4.3a.85.85 0 00-1.3 0 .85.85 0 000 1.3l3.6 3.6a1.33 1.33 0 00.7.3" fill-rule="evenodd"/><path d="M6.8 5.5a.71.71 0 00.6-.3L11 1.6a.85.85 0 000-1.3.85.85 0 00-1.3 0L6.1 3.9a.85.85 0 000 1.3 1.08 1.08 0 00.7.3M175 10.3h-61.3V8.5H175zM201 54.2h-30.4v-1.8H201zM190.5 45a1.6 1.6 0 101.6-1.6 1.58 1.58 0 00-1.6 1.6M58.7 9.4a1.6 1.6 0 101.6-1.6 1.64 1.64 0 00-1.6 1.6M21.2 17a1.6 1.6 0 101.6-1.6 1.58 1.58 0 00-1.6 1.6" fill-rule="evenodd"/><path d="M154.5 119.5h4.6a.65.65 0 00.6-.6V53.14l-.1-.3-2.3-4.9a.59.59 0 00-1.1 0l-2.3 4.9-.1.3v65.8a.86.86 0 00.7.6" fill="#fff" fill-rule="evenodd"/><path d="M159.7 113.2h-5.77v-58h6.7z" fill="#b7b7b7" fill-rule="evenodd"/><path d="M154.8 119.5V53.2l2-4.3 2 4.3v23.2h1.8V52.8L158 47a1.21 1.21 0 00-1.2-.7 1.52 1.52 0 00-1.2.7l-2.7 5.7v66.8zM160.6 119.3h-1.8V95.5h1.8z" fill-rule="evenodd"/><path d="M159.93 56.14h-6v-1.8h6z" fill-rule="evenodd"/><path d="M143.1 119.6V32.5h6.1a.88.88 0 01.8.9v85.4a.88.88 0 01-.8.9h-6.1z" fill="#dbdbdb" fill-rule="evenodd"/><path d="M148.5 118.6h1.8V33.3a1.9 1.9 0 00-1.9-1.9h-11.8a1.9 1.9 0 00-1.9 1.9v14h1.8v-14l11.8-.1.2 85.4" fill-rule="evenodd"/><path d="M149.4 104.14h-6.3v-1.8h6.3zM149.4 95h-6.3v-1.8h6.3zM149.4 85.8h-6.3V84h6.3zM149.4 76.7h-6.3v-1.9h6.3zM149.4 67.5h-6.3v-1.8h6.3zM149.4 58.3h-6.3v-1.8h6.3zM149.4 49.2h-6.3v-1.9h6.3zM149.4 40.14h-6.3v-1.8h6.3z" fill-rule="evenodd"/><path d="M52.4 115.8H142a1.16 1.16 0 001.2-1.2V50.9a1.16 1.16 0 00-1.2-1.2H52.4a1.16 1.16 0 00-1.2 1.2v63.7a1.22 1.22 0 001.2 1.2" fill="#b7b7b7" fill-rule="evenodd"/><path d="M76.93 50.6h-6.3v-1.8h6.3zM53.5 116.8H141a3.16 3.16 0 003.2-3.2V52a3.16 3.16 0 00-3.2-3.2H78.6v1.8H141a1.37 1.37 0 011.4 1.4v61.6a1.37 1.37 0 01-1.4 1.4H53.6a1.37 1.37 0 01-1.4-1.4h-1.8a3.07 3.07 0 003.1 3.2M68.5 50.6H56.2v-1.8h12.3z" fill-rule="evenodd"/><path d="M138.8 108.6H56.2V54.9h82.6zM52.8 119.5h89.8a4.32 4.32 0 004.3-3.7l.6-3.9H106l-1.6 2.3H92.93l-1.7-2.3H47.3l.6 3.4a5 5 0 004.9 4.2" fill="#fff" fill-rule="evenodd"/><path d="M146.6 112.8l-.5 2.8a3.46 3.46 0 01-3.5 2.9H52.8a4 4 0 01-4-3.4l-.4-2.3h42.3l1.7 2.3h12.53l1.6-2.3h40.1m-93.8 7.6h89.8a5.27 5.27 0 005.2-4.4l.8-5h-43.2l-1.6 2.3H93.2l-1.7-2.3H46.1l.7 4.4a6.27 6.27 0 006 5" fill-rule="evenodd"/><path d="M46.3 111h4.9-4.9" fill="#b4d7e7" fill-rule="evenodd"/><path d="M56.2 50.6h.4l.5-1.8h-.9v1.8" fill-rule="evenodd"/><path d="M56.3 108.6h-.1V61.3h.1z" fill="#b4d7e7" fill-rule="evenodd"/><path d="M49.7 119.5h6.6v-.9h-3.5a4 4 0 01-4-3.4l-.4-2.3h7.9V111H46.2l.7 4.4a6.41 6.41 0 002.8 4.1" fill-rule="evenodd"/><path d="M45.8 63.4h-3.3l-5-15.1 6.8-12h1.1l.1 11.5a8.26 8.26 0 00-1.3.7 2.19 2.19 0 103.1 0 4.13 4.13 0 00-1.1-.7l-.27-11.5h1l7 12-4.9 15.1h-3.2" fill="#fff" fill-rule="evenodd"/><path d="M45.93 48.6a5.58 5.58 0 01.8.5 1.49 1.49 0 01.4.9 1.09 1.09 0 01-.4.9 1.49 1.49 0 01-.9.4 1.09 1.09 0 01-.9-.4 1.27 1.27 0 010-1.76c-.1-.1.1-.2 1-.5zm-.2 13.9h-2.6l-4.7-14.1 6-10.6.1 9.4c-.6.3-.9.4-1 .6a3.14 3.14 0 000 4.4 3.111 3.111 0 004.4-4.4 5.55 5.55 0 00-.8-.6l-.2-9.3 6.1 10.4-4.5 14.1zm-3.9 1.8h7.9l5.2-16.16-7.5-12.8h-3.7l-7.33 12.8 5.4 16.2z" fill-rule="evenodd"/><path d="M53 119.5H38.4V62.3H53z" fill="#dbdbdb" fill-rule="evenodd"/><path d="M45.7 119.5h-7.1V62.3h7.1z" fill="#b7b7b7" fill-rule="evenodd"/><path d="M46.6 47.7h-1.8V36.2h1.8z" fill-rule="evenodd"/><path d="M45.7 48.4a1.7 1.7 0 11-1.7 1.7 1.83 1.83 0 011.7-1.7zm0 5.2a3.5 3.5 0 10-3.5-3.5 3.54 3.54 0 003.5 3.5zM39.4 119.5h-1.9v-17.8h1.9zM52.1 119.5h1.83V61.3H37.5v4.9h1.9v-3h12.7v56.3" fill-rule="evenodd"/><path d="M23.4 66.2h-4.3L6 69.3a2.67 2.67 0 00-2 2.6v.8h19.4v-6.5M23.4 87.14h-4.3L6 84.04a2.67 2.67 0 01-2-2.6v-.8h19.4v6.5" fill="#dbdbdb" fill-rule="evenodd"/><path d="M22.5 71.8H5a1.7 1.7 0 011.4-1.6l13-3.1h3.3v4.7zM3.1 73.7h21.2v-8.3h-5.37l-13.1 3.1a3.55 3.55 0 00-2.7 3.5zM22.5 86.2h-3.3l-13-3.06a1.6 1.6 0 01-1.27-1.64h17.6zM19.1 88h5.3v-8.3H3.2v1.7a3.55 3.55 0 002.73 3.5z" fill-rule="evenodd"/><path d="M33.5 79.3h3.1l9.3 2.2a1.9 1.9 0 011.5 1.8v.7H33.6v-4.7M33.5 72.9h3.1l9.3-2.2a1.93 1.93 0 001.5-1.9v-.6H33.6v4.7" fill="#dbdbdb" fill-rule="evenodd"/><path d="M46.4 83.14h-12v-2.8h2l9.2 2.2a.76.76 0 01.8.6zm-13.8 1.8h15.7v-1.5a2.77 2.77 0 00-2.2-2.7l-9.5-2.2h-4zM36.4 72h-2v-2.8h12a.86.86 0 01-.7.6zm-3.8 1.8h4.2l9.3-2.2a2.77 2.77 0 002.2-2.7v-1.5H32.6z" fill-rule="evenodd"/><path d="M34.1 119.5H23.4V66.2h10.7z" fill="#fff" fill-rule="evenodd"/><path d="M22.5 119.5h1.9V67.14h8.8v52.4H35V65.3H22.5v54.2" fill-rule="evenodd"/><path d="M34.1 72.9h-4.8v-1.76h4.8zM34.1 77.4h-4.8v-1.8h4.8zM34.1 81.9h-4.8v-1.76h4.8zM34.1 108.8h-4.8V107h4.8zM34.1 113.3h-4.8v-1.8h4.8zM34.1 117.8h-4.8V116h4.8z" fill-rule="evenodd"/><path d="M36.6 105.14H22.8V87.2h13.8z" fill="#b7b7b7" fill-rule="evenodd"/><path d="M35.7 104.2h-12V88.14h12zm1.8 1.8H21.93V86.3h15.6z" fill-rule="evenodd"/><path d="M41 99.6h-3v-7.2h3z" fill="#dbdbdb" fill-rule="evenodd"/><path d="M40.1 98.7h-1.17v-5.4h1.2zm1.8 1.8h-4.8v-9h4.83zM7.1 75a1.5 1.5 0 110 3 1.54 1.54 0 01-1.5-1.5A1.42 1.42 0 017.1 75zm0 4.9a3.35 3.35 0 10-3.4-3.3 3.35 3.35 0 003.4 3.3z" fill-rule="evenodd"/><path d="M169.8 119.5h1.9a1.16 1.16 0 001.2-1.2v-4.16a1.16 1.16 0 00-1.2-1.2h-1.9a1.16 1.16 0 00-1.2 1.2v4.2a1.16 1.16 0 001.2 1.2" fill="#b7b7b7" fill-rule="evenodd"/><path d="M171.7 113.8a.27.27 0 01.3.3v4.2a.27.27 0 01-.3.3h-1.9a.27.27 0 01-.3-.3v-4.16a.27.27 0 01.3-.3zm-1.9 6.6h1.9a2.05 2.05 0 002.1-2.1v-4.16a2.05 2.05 0 00-2.1-2.1h-1.9a2.05 2.05 0 00-2.1 2.1v4.2a2 2 0 002.1 2.06z" fill-rule="evenodd"/><path d="M156.1 85.8a14.5 14.5 0 1121.7 12.6v14.3l-2.1 3.9h-10l-2.4-3.9V98.4a14.54 14.54 0 01-7.2-12.6" fill="#fff" fill-rule="evenodd"/><path d="M177.93 102.4v11.2l-2.1 3h-10l-2.4-3v-11.2h14.5" fill="#dbdbdb" fill-rule="evenodd"/><path d="M163.4 112.7l2.4 3.9h10l2.1-3.9h-14.5" fill="#b7b7b7" fill-rule="evenodd"/><path d="M165.3 117.5h11l2.4-4.6v-14a15.41 15.41 0 003.7-23L181 77a13.43 13.43 0 013.2 8.8 13.69 13.69 0 01-6.8 11.8l-.5.3v14.6l-1.7 3.2h-8.9l-2-3.3V97.9l-.5-.3a13.61 13.61 0 016.8-25.4 12.55 12.55 0 015.1 1l.7-1.7a16.16 16.16 0 00-5.8-1.1 15.4 15.4 0 00-8.1 28.5V113l2.8 4.5" fill-rule="evenodd"/><path d="M179.6 75.6l1.3-1.3a8.5 8.5 0 00-2.3-1.7l-.3-.2-.9 1.6.3.2a6.69 6.69 0 011.9 1.4M180.1 103.7h-18.9v-1.8h18.9zM180.1 107h-18.9v-1.8h18.9zM180.1 110.3h-18.9v-1.8h18.9zM180.1 113.6h-18.9v-1.8h18.9z" fill-rule="evenodd"/><path d="M163 85.8a7.6 7.6 0 107.6-7.6 7.6 7.6 0 00-7.6 7.6" fill="#dbdbdb" fill-rule="evenodd"/><path d="M192.1 120.4H0v-1.8h192.1zM199.8 120.4h-5.5v-1.8h5.5z" fill-rule="evenodd"/><path fill="none" stroke="#000" stroke-linecap="round" stroke-linejoin="round" stroke-width="2" d="M97.15 71.52L87.12 81.55M112.55 96.95l-4.67-4.67M99.56 79.82l3.11 3.12M95.41 83.98l3.11 3.11"/><path d="M105.4 80.08l2.25 2.25a7.09 7.09 0 01-10 10l-2.28-2.19z" fill="#dbdbdb"/><path d="M105.63 79.99l2.3 2.25a7.09 7.09 0 01-10 10l-2.25-2.25zM82.45 66.85l4.67 4.67" fill="none" stroke="#000" stroke-linecap="round" stroke-linejoin="round" stroke-width="2"/><path d="M89.37 83.71l-2.25-2.25a7.09 7.09 0 0110-10l2.25 2.25z" fill="#dbdbdb"/><path d="M89.37 83.8l-2.25-2.25a7.09 7.09 0 0110-10l2.25 2.25zM107.88 82.25L97.85 92.28" fill="none" stroke="#000" stroke-linecap="round" stroke-linejoin="round" stroke-width="2"/></symbol>


<symbol id="icon-license" width="168px" height="104px" viewBox="0 0 168 104" version="1.1" xmlns="http://www.w3.org/2000/svg" xmlns:xlink="http://www.w3.org/1999/xlink">
    <defs></defs>
    <g id="Page-1" stroke="none" stroke-width="1" fill="none" fill-rule="evenodd">
        <path d="M159.557,102.076 L159.557,23.847 C159.557,21.722 157.834,20 155.71,20 L98.847,20 C96.722,20 95,21.722 95,23.847 L95,102.077 L159.557,102.076" id="Fill-16" fill="#ADDDF8"></path>
        <path d="M153.735,103.076 L153.735,24.847 C153.735,22.722 152.274,21 150.473,21 L102.262,21 C100.46,21 99,22.722 99,24.847 L99,103.077 L153.735,103.076" id="Fill-17" fill="#FFFFFF"></path>
        <path d="M95,29.973 L95,23.235 C95,21.448 96.448,20 98.235,20 L156.322,20 C158.108,20 159.557,21.448 159.557,23.235 L159.557,29.973 L95,29.973" id="Fill-18" fill="#ADDDF8"></path>
        <path d="M95.5,33.4394531 L94,33.4394531 L94,22.986 C94,20.788 95.787,19 97.985,19 L106.557,19 L106.557,20.5 L97.985,20.5 C96.614,20.5 95.5,21.615 95.5,22.986 L95.5,30.986 L95.5,33.4394531 Z" id="Fill-19" fill="#0073AA"></path>
        <path d="M160.284,102.85612 L158.784,101.859 L158.784,22.986 C158.784,21.615 157.669,20.5 156.299,20.5 L118,20.5 L118,19 L156.299,19 C158.496,19 160.284,20.788 160.284,22.986 L160.284,101.859 L160.284,102.85612 Z" id="Fill-20" fill="#0073AA"></path>
        <polygon id="Fill-21" fill="#0073AA" points="110 20.5 114.435 20.5 114.435 19 110 19"></polygon>
        <polygon id="Fill-22" fill="#0073AA" points="95 30.5 159.557 30.5 159.557 29 95 29"></polygon>
        <polygon id="Fill-23" fill="#0073AA" points="102 25.5 103.502 25.5 103.502 24 102 24"></polygon>
        <polygon id="Fill-24" fill="#0073AA" points="107 25.5 108.503 25.5 108.503 24 107 24"></polygon>
        <polygon id="Fill-25" fill="#0073AA" points="111 25.5 112.503 25.5 112.503 24 111 24"></polygon>
        <polygon id="Fill-26" fill="#E7F7FF" points="103 55.642 150.26 55.642 150.26 37 103 37"></polygon>
        <polygon id="Fill-27" fill="#D1E8F0" points="103 86.641 117.37 86.641 117.37 68 103 68"></polygon>
        <polygon id="Fill-28" fill="#E7F7FF" points="120 79.641 134.782 79.641 134.782 61 120 61"></polygon>
        <polygon id="Fill-29" fill="#E7F7FF" points="136 79.641 150.369 79.641 150.369 61 136 61"></polygon>
        <polygon id="Fill-28-Copy" fill="#E7F7FF" points="102.48 103.641 134.782 103.641 134.782 84.999 102.48 84.999"></polygon>
        <polygon id="Fill-29-Copy" fill="#E7F7FF" points="136 103.641 150.369 103.641 150.369 85 136 85"></polygon>
        <path d="M167.024,7.5 L162.75,7.5 C162.335,7.5 162,7.164 162,6.75 C162,6.335 162.335,6 162.75,6 L167.024,6 C167.438,6 167.774,6.335 167.774,6.75 C167.774,7.164 167.438,7.5 167.024,7.5" id="Fill-30" fill="#0073AA"></path>
        <path d="M164.75,9.774 C164.336,9.774 164,9.438 164,9.024 L164,4.75 C164,4.336 164.336,4 164.75,4 C165.164,4 165.5,4.336 165.5,4.75 L165.5,9.024 C165.5,9.438 165.164,9.774 164.75,9.774" id="Fill-31" fill="#0073AA"></path>
        <path d="M38.024,3.5 L33.75,3.5 C33.336,3.5 33,3.164 33,2.75 C33,2.336 33.336,2 33.75,2 L38.024,2 C38.438,2 38.774,2.336 38.774,2.75 C38.774,3.164 38.438,3.5 38.024,3.5" id="Fill-32" fill="#0073AA"></path>
        <path d="M35.75,5.774 C35.336,5.774 35,5.438 35,5.024 L35,0.75 C35,0.336 35.336,0 35.75,0 C36.164,0 36.5,0.336 36.5,0.75 L36.5,5.024 C36.5,5.438 36.164,5.774 35.75,5.774" id="Fill-33" fill="#0073AA"></path>
        <polygon id="Fill-42" fill="#0073AA" points="51 3.5 68.395 3.5 68.395 2 51 2"></polygon>
        <polygon id="Fill-43" fill="#0073AA" points="45 3.5 48.57 3.5 48.57 2 45 2"></polygon>
        <path d="M10.553,75.276 C10.553,75.981 9.982,76.553 9.277,76.553 C8.572,76.553 8,75.981 8,75.276 C8,74.571 8.572,74 9.277,74 C9.982,74 10.553,74.571 10.553,75.276" id="Fill-44" fill="#0073AA"></path>
        <path d="M81.83,19.915 C81.83,20.421 81.421,20.83 80.915,20.83 C80.41,20.83 80,20.421 80,19.915 C80,19.409 80.41,19 80.915,19 C81.421,19 81.83,19.409 81.83,19.915" id="Fill-45" fill="#0073AA"></path>
        <path d="M20.444,7.222 C20.444,7.897 19.897,8.444 19.222,8.444 C18.547,8.444 18,7.897 18,7.222 C18,6.547 18.547,6 19.222,6 C19.897,6 20.444,6.547 20.444,7.222" id="Fill-48" fill="#0073AA"></path>
        <path d="M166.444,43.222 C166.444,43.896 165.897,44.443 165.222,44.443 C164.547,44.443 164,43.896 164,43.222 C164,42.547 164.547,42 165.222,42 C165.897,42 166.444,42.547 166.444,43.222" id="Fill-49" fill="#0073AA"></path>
        <polyline id="Fill-50" fill="#A6CFE4" points="100.512 102 95 102 100.512 102"></polyline>
        <path d="M94.8495,88 L98.8495,88 L95.9598297,88 L95.9598297,102.09423 L99.023112,102.09423 L99.023112,103 L94.8495,103 L94.8495,88 Z M94.8495,32.75 L99.3995,32.75 L99.3995,32 L94.8495,32 L94.8495,32.75 Z" id="Fill-51" fill="#3378B0"></path>
        <path d="M41,79.577 L41,34.024801 C41,32.9360152 41.884,32.053 42.974,32.053 L117.087891,32.053 C118.177891,32.053 120.988,34.9388835 120.988,36.0276693 L120.988,79.577 L41,79.577 Z" id="Fill-55" fill="#8AC4E6"></path>
        <polygon id="Fill-56" fill="#0073AA" points="41 58.71 42.5 58.71 42.5 50 41 50"></polygon>
        <path d="M121.774,89.5021973 L120.274,89.5021973 L120.274,36.617 C120.274,34.898 118.875,33.5 117.156,33.5 L58,33.5 L58,32 L117.156,32 C119.702,32 121.774,34.071 121.774,36.617 L121.774,89.5021973 L121.34668,85.7150879" id="Fill-57" fill="#0073AA"></path>
        <polygon id="Fill-58" fill="#FFFFFF" points="46 83.024 117.396 83.024 117.396 37 46 37"></polygon>
        <polygon id="Fill-59" fill="#E7F7FF" points="69 101.266 93.099 101.266 93.099 87 69 87"></polygon>
        <polygon id="Fill-60" fill="#8AC4E6" points="69 93.133 93.099 93.133 93.099 86 69 86"></polygon>
        <path d="M69.5,101.266 L92.099,101.266 L92.099,88.5 L69.5,88.5 L69.5,101.266 Z M68,102.766 L93.599,102.766 L93.599,87 L68,87 L68,102.766 Z" id="Fill-61" fill="#0073AA"></path>
        <path d="M120.988,82.317 L41,82.317 L41,87.6012964 C41,88.2646852 41.896,88.802 43,88.802 L118.989,88.802 C120.093,88.802 120.988,88.2646852 120.988,87.6012964 L120.988,82.317" id="Fill-62" fill="#FFFFFF"></path>
        <polygon id="Fill-63" fill="#0073AA" points="53 89.5 115.489 89.5 115.489 88 53 88"></polygon>
        <polygon id="Fill-64" fill="#0073AA" points="51.5465 89.5 121.3405 89.5 121.3405 78.709 51.5465 78.709"></polygon>
        <polygon id="Fill-66" fill="#FFFFFE" points="136 82.189 138.052 82.189 138.052 68.082 136 68.082"></polygon>
        <path d="M137.746,101.42 L136.566,101.42 C135.149,101.42 134,100.271 134,98.854 L134,82 L140.312,82 L140.312,98.854 C140.312,100.271 139.163,101.42 137.746,101.42" id="Fill-67" fill="#FFFFFF"></path>
        <path d="M134.5,83.5 L134.5,99.604 C134.5,100.606 135.315,101.421 136.316,101.421 L137.495,101.421 C138.497,101.421 139.312,100.606 139.312,99.605 L139.312,83.5 L134.5,83.5 Z M137.495,102.921 L136.316,102.921 C134.488,102.921 133,101.434 133,99.604 L133,82 L140.812,82 L140.812,99.605 C140.812,101.434 139.325,102.921 137.495,102.921 L137.495,102.921 Z" id="Fill-68" fill="#0073AA"></path>
        <polygon id="Fill-69" fill="#0073AA" points="132 83.5 142.066 83.5 142.066 82 132 82"></polygon>
        <polyline id="Fill-70" fill="#FFFFFF" points="138.504 64.191 135 64.191 135.416 58 138.107 58 138.504 64.191"></polyline>
        <path d="M136.283,81.086 L136.835,81.086 L136.835,63.191 L137.506,63.191 L137.205,58.5 L135.919,58.5 L135.604,63.191 L136.283,63.191 L136.283,81.086 Z M138.335,82.586 L134.783,82.586 L134.783,64.691 L134,64.691 L134.517,57 L138.612,57 L139.106,64.691 L138.335,64.691 L138.335,82.586 L138.335,82.586 Z" id="Fill-71" fill="#0073AA"></path>
        <path d="M158.556,66.414 C158.556,63.16 156.675,60.353 153.944,59 L153.944,66.158 L150.278,68.274 L146.612,66.158 L146.612,59 C143.881,60.353 142,63.16 142,66.414 C142,69.82 144.057,72.742 146.996,74.013 L147.043,98.072 C147.043,99.885 148.513,101.354 150.325,101.354 C152.138,101.354 153.607,99.885 153.607,98.072 L153.56,74.013 C156.499,72.742 158.556,69.82 158.556,66.414" id="Fill-72" fill="#FFFFFF"></path>
        <path d="M145.612,60.532 C143.666,61.934 142.5,64.172 142.5,66.622 C142.5,69.626 144.283,72.339 147.044,73.533 L147.495,73.728 L147.543,98.279 C147.543,99.677 148.679,100.812 150.075,100.812 C151.472,100.812 152.608,99.677 152.608,98.281 L152.559,73.729 L153.012,73.533 C155.772,72.339 157.556,69.626 157.556,66.622 C157.556,64.171 156.389,61.933 154.444,60.532 L154.444,66.799 L150.028,69.349 L145.612,66.799 L145.612,60.532 Z M150.075,102.312 C147.852,102.312 146.043,100.504 146.043,98.281 L145.997,74.7 C142.945,73.177 141,70.058 141,66.622 C141,63.172 142.927,60.074 146.029,58.536 L147.112,58 L147.112,65.932 L150.028,67.616 L152.944,65.932 L152.944,58 L154.027,58.536 C157.129,60.073 159.056,63.171 159.056,66.622 C159.056,70.057 157.111,73.175 154.061,74.699 L154.108,98.279 C154.108,100.504 152.298,102.312 150.075,102.312 L150.075,102.312 Z" id="Fill-73" fill="#0073AA"></path>
        <path d="M53,90 L54.154,90" id="Fill-74" fill="#A6CFE4"></path>
        <polygon id="Fill-78" fill="#0073AA" points="53 89.5 54.154 89.5 54.154 88 53 88"></polygon>
        <path d="M17,103.21 L50.716,103.21 L50.716,64.224 C50.716,62.995 49.72,62 48.492,62 L19.224,62 C17.995,62 17,62.995 17,64.224 L17,103.21" id="Fill-80" fill="#FFFFFF"></path>
        <path d="M18.5,99.476 L17,99.476 L17,65.686 C17,63.654 18.653,62 20.685,62 L24.907,62 L24.907,63.5 L20.685,63.5 C19.48,63.5 18.5,64.481 18.5,65.686 L18.5,99.476" id="Fill-81" fill="#0073AA"></path>
        <polygon id="Fill-82" fill="#0073AA" points="27 63.5 31.912 63.5 31.912 62 27 62"></polygon>
        <path d="M52.366,99.476 L50.866,99.476 L50.866,65.686 C50.866,64.481 49.886,63.5 48.681,63.5 L34,63.5 L34,62 L48.681,62 C50.712,62 52.366,63.654 52.366,65.686 L52.366,99.476" id="Fill-83" fill="#0073AA"></path>
        <polygon id="Fill-84" fill="#E7F7FF" points="20 103.024 48.147 103.024 48.147 68 20 68"></polygon>
        <polygon id="Fill-85" fill="#0073AA" points="31 66.5 38.152 66.5 38.152 65 31 65"></polygon>
        <path d="M53.497,102.743 L53.497,101.63 C53.497,100.547 52.62,99.666 51.535,99.666 L48.487,99.654 C48.125,98.069 47.502,96.586 46.661,95.257 L48.819,93.097 C49.593,92.329 49.597,91.078 48.826,90.31 L47.211,88.693 C46.442,87.925 45.193,87.919 44.423,88.687 L42.261,90.847 C40.933,90.005 39.451,89.383 37.871,89.023 L37.871,85.973 C37.871,84.884 36.985,84 35.893,84 L33.614,84 C32.522,84 31.639,84.884 31.639,85.973 L31.639,89.023 C30.08,89.374 28.626,89.989 27.31,90.804 L25.164,88.639 C24.396,87.867 23.145,87.852 22.374,88.626 L20.75,90.231 C19.98,90.993 19.971,92.246 20.736,93.018 L22.88,95.189 C22.035,96.513 21.404,97.995 21.04,99.575 L17.991,99.562 C16.899,99.553 16.015,100.438 16.015,101.533 L16,102.743 L28.493,102.743 C28.493,99.288 31.296,96.495 34.756,96.495 C38.211,96.495 41.01,99.288 41.01,102.743 L53.497,102.743" id="Fill-86" fill="#8AC4E6"></path>
        <path d="M41.511,102.493 L40.011,102.493 C40.011,99.462 37.541,96.995 34.506,96.995 C31.466,96.995 28.993,99.462 28.993,102.493 L27.493,102.493 C27.493,98.634 30.639,95.495 34.506,95.495 C38.368,95.495 41.511,98.634 41.511,102.493 Z M16.5,102.503 L15,102.484 L15.015,101.273 C15.015,100.549 15.302,99.862 15.821,99.346 C16.336,98.835 17.001,98.568 17.747,98.563 L20.206,98.573 C20.544,97.337 21.039,96.155 21.684,95.049 L19.952,93.295 C19.443,92.78 19.163,92.095 19.167,91.366 C19.172,90.639 19.457,89.958 19.972,89.448 L21.596,87.842 C22.615,86.82 24.415,86.824 25.446,87.86 L27.18,89.611 C28.283,88.986 29.442,88.508 30.639,88.186 L30.639,85.723 C30.639,84.222 31.861,83 33.364,83 L35.643,83 C37.147,83 38.371,84.222 38.371,85.723 L38.371,88.187 C39.61,88.522 40.792,89.012 41.897,89.651 L43.643,87.906 C44.704,86.849 46.431,86.852 47.491,87.913 L49.106,89.53 C49.619,90.041 49.902,90.724 49.902,91.451 C49.901,92.18 49.615,92.865 49.098,93.38 L47.357,95.121 C47.996,96.231 48.488,97.415 48.824,98.656 L51.288,98.666 C52.781,98.666 53.997,99.883 53.997,101.38 L53.997,102.493 L52.497,102.493 L52.497,101.38 C52.497,100.711 51.954,100.166 51.285,100.166 L47.638,100.151 L47.506,99.571 C47.167,98.087 46.586,96.686 45.778,95.407 L45.457,94.901 L48.039,92.317 C48.273,92.084 48.401,91.776 48.402,91.449 C48.402,91.125 48.276,90.82 48.046,90.591 L46.43,88.974 C45.953,88.495 45.177,88.494 44.703,88.968 L42.116,91.551 L41.61,91.23 C40.336,90.423 38.937,89.842 37.454,89.505 L36.871,89.371 L36.871,85.723 C36.871,85.049 36.32,84.5 35.643,84.5 L33.364,84.5 C32.688,84.5 32.139,85.049 32.139,85.723 L32.139,89.373 L31.553,89.505 C30.122,89.827 28.742,90.394 27.454,91.192 L26.947,91.506 L24.382,88.917 C23.921,88.454 23.115,88.445 22.655,88.905 L21.027,90.514 C20.797,90.742 20.669,91.047 20.667,91.375 C20.666,91.702 20.79,92.01 21.019,92.24 L23.585,94.838 L23.262,95.343 C22.447,96.62 21.861,98.016 21.521,99.494 L21.386,100.078 L17.738,100.063 C17.365,100.068 17.106,100.184 16.877,100.412 C16.644,100.643 16.515,100.952 16.515,101.282 L16.5,102.503 L16.5,102.503 Z" id="Fill-87" fill="#0073AA"></path>
        <path d="M41,34.935 L41,34.935 C41,33.977 41.683,33.179 42.588,33 C41.683,33.179 41,33.978 41,34.936" id="Fill-97" fill="#B4D7E7"></path>
        <path d="M41.75,50.13 L41.75,49.867 L41,49.867 L41,33.973 C41,33.016 41.683,32.217 42.588,32.038 C42.713,32.013 42.842,32 42.974,32 L53.999,32 C54.184,33.539 54.164,35.105 53.921,36.652 L45.341,36.652 L45.341,48.704 C44.19,49.324 42.985,49.799 41.75,50.13" id="Fill-98" fill="#4B97C6"></path>
        <path d="M41,50.593 L41,50 L42.5,50 L42.5,50.263 C42.005,50.396 41.504,50.506 41,50.593" id="Fill-99" fill="#0073AA"></path>
        <path d="M57.996,51.046 C57.881,51.046 57.765,51.027 57.652,50.987 L48.182,47.647 C47.483,48.178 46.753,48.646 46,49.052 L46,37 L54.58,37 C54.365,38.372 53.975,39.729 53.4,41.036 L58.863,49.448 C59.105,49.82 59.083,50.303 58.809,50.652 C58.608,50.906 58.307,51.046 57.996,51.046" id="Fill-100" fill="#E7F7FF"></path>
        <path d="M26.1809572,45.6108842 C19.2089572,40.1958842 17.9459572,30.1538842 23.3599572,23.1818842 C28.7739572,16.2088842 38.8159572,14.9458842 45.7889572,20.3598842 C51.8099572,25.0348842 53.5689572,33.1588842 50.4529572,39.7798842 L56.1399572,48.5368842 C56.2879572,48.7638842 56.0629572,49.0498842 55.8069572,48.9598842 L45.9509572,45.4828842 C40.3129572,49.9858842 32.1309572,50.2308842 26.1809572,45.6108842" id="Fill-101" fill="#FFFFFF"></path>
        <path d="M35.7222614,49.4751973 C32.1062614,49.4751973 28.4892614,48.2991973 25.4552614,45.9421973 C18.5682614,40.5951973 16.9512614,30.7251973 21.7722614,23.4741973 L23.0212614,24.3041973 C18.6322614,30.9051973 20.1062614,39.8901973 26.3752614,44.7581973 C31.9552614,49.0911973 39.7022614,49.0401973 45.2152614,44.6361973 L45.5412614,44.3761973 L54.4992614,47.5361973 L49.3302614,39.5781973 L49.5072614,39.2001973 C52.5142614,32.8101973 50.6452614,25.0271973 45.0622614,20.6911973 C40.8452614,17.4171973 35.1332614,16.5931973 30.1532614,18.5391973 L29.6082614,17.1431973 C35.0762614,15.0031973 41.3502614,15.9101973 45.9822614,19.5071973 C52.0032614,24.1821973 54.0922614,32.5111973 51.0392614,39.4551973 L56.5022614,47.8671973 C56.7442614,48.2381973 56.7222614,48.7221973 56.4482614,49.0701973 C56.1742614,49.4191973 55.7082614,49.5531973 55.2912614,49.4061973 L45.8212614,46.0661973 C42.8302614,48.3371973 39.2762614,49.4751973 35.7222614,49.4751973" id="Fill-102" fill="#0073AA"></path>
        <path d="M25.127,22.451 L24,21.462 C24.279,21.143 24.568,20.838 24.866,20.546 C25.873,19.559 27.002,18.702 28.224,18 L28.971,19.301 C27.86,19.94 26.832,20.719 25.916,21.617 C25.645,21.884 25.382,22.161 25.127,22.451" id="Fill-103" fill="#0073AA"></path>
        <polyline id="Fill-112" fill="#0073AA" points="54.009 33.51 54 32.01 55.647 32 55.656 33.5 54.009 33.51"></polyline>
        <polygon id="Fill-125" fill="#0073AA" points="0 103.5 2.739 103.5 2.739 102 0 102"></polygon>
        <polygon id="Fill-127" fill="#3378B0" points="4 103.5 167.822 103.5 167.822 102 4 102"></polygon>
        <g id="Group" transform="translate(25.000000, 22.000000)">
            <path d="M4.50393103,3.19910345 L2.73937931,4.96289655 L2.16206897,4.38634483 C1.84193103,4.0662069 1.84193103,3.54731034 2.16206897,3.22717241 L2.76744828,2.6217931 C3.08758621,2.30165517 3.60648276,2.30165517 3.92662069,2.6217931 L4.50393103,3.19910345" id="Fill-132" fill="#9CC9E1"></path>
            <path d="M3.34703448,2.95103448 L3.17027586,3.02386207 L2.56489655,3.62924138 L2.49131034,3.80675862 L2.56489655,3.98427586 L2.73937931,4.15875862 L3.69903448,3.19910345 L3.52455172,3.02462069 L3.34703448,2.95103448 Z M2.73937931,5.7677931 L1.76,4.78841379 C1.49751724,4.52668966 1.35337931,4.17772414 1.35337931,3.80675862 C1.35337931,3.4357931 1.49827586,3.08682759 1.76075862,2.82434483 L2.36537931,2.21972414 C2.88882759,1.69551724 3.80448276,1.694 4.32944828,2.21972414 L5.30806897,3.19910345 L2.73937931,5.7677931 L2.73937931,5.7677931 Z" id="Fill-133" fill="#0073AA"></path>
            <path d="M18.8752414,4.77855172 L17.1129655,3.01248276 L17.6902759,2.43593103 C18.0111724,2.11655172 18.530069,2.11731034 18.8502069,2.43744828 L19.454069,3.04282759 C19.7742069,3.36372414 19.7734483,3.88262069 19.4525517,4.20275862 L18.8752414,4.77855172" id="Fill-134" fill="#9CC9E1"></path>
            <path d="M17.9171034,3.01324138 L18.876,3.97441379 L19.0504828,3.79993103 L19.124069,3.62241379 L19.0512414,3.44489655 L18.4473793,2.83951724 C18.3487586,2.74089655 18.1902069,2.74165517 18.0923448,2.83875862 L17.9171034,3.01324138 Z M18.8744828,5.58344828 L16.308069,3.01172414 L17.2889655,2.03310345 C17.8306207,1.49296552 18.7113793,1.49372414 19.2530345,2.03537931 L19.8568966,2.64151724 C20.1193793,2.904 20.2627586,3.25296552 20.262,3.62393103 C20.262,3.99489655 20.1171034,4.34386207 19.8538621,4.60558621 L18.8744828,5.58344828 L18.8744828,5.58344828 Z" id="Fill-135" fill="#0073AA"></path>
            <path d="M17.2783448,19.1483448 L19.0466897,17.3883448 L19.6224828,17.9664138 C19.9418621,18.2873103 19.9403448,18.8062069 19.6194483,19.1255862 L19.0133103,19.7294483 C18.6924138,20.0488276 18.1727586,20.0473103 17.8533793,19.7264138 L17.2783448,19.1483448" id="Fill-136" fill="#9CC9E1"></path>
            <path d="M18.0824828,19.1506207 L18.2569655,19.3251034 L18.4344828,19.3994483 L18.6112414,19.3258621 L19.2181379,18.7227586 L19.2917241,18.5452414 L19.2188966,18.3677241 L19.0451724,18.1924828 L18.0824828,19.1506207 Z M18.4344828,20.5373793 L18.4314483,20.5373793 C18.0604828,20.5366207 17.7115172,20.3909655 17.4505517,20.1277241 L16.4734483,19.1468276 L19.0482069,16.5834483 L20.0253103,17.5651034 C20.2870345,17.8283448 20.4311724,18.1773103 20.4296552,18.5482759 C20.4288966,18.9192414 20.2832414,19.2674483 20.0207586,19.5291724 L19.4146207,20.1322759 C19.1521379,20.394 18.8046897,20.5373793 18.4344828,20.5373793 L18.4344828,20.5373793 Z" id="Fill-137" fill="#0073AA"></path>
            <path d="M2.91006897,17.534 L4.66855172,19.3046207 L4.08972414,19.8796552 C3.76806897,20.1990345 3.24917241,20.1967586 2.93055172,19.8758621 L2.32744828,19.2682069 C2.00806897,18.9473103 2.01034483,18.4284138 2.33124138,18.1090345 L2.91006897,17.534" id="Fill-138" fill="#9CC9E1"></path>
            <path d="M2.9077931,18.3388966 L2.73255172,18.5126207 L2.6582069,18.6901379 L2.73103448,18.8668966 L3.33413793,19.4745517 L3.51089655,19.5488966 L3.51165517,19.5488966 L3.68841379,19.476069 L3.86365517,19.3023448 L2.9077931,18.3388966 Z M3.51165517,20.6868276 L3.50710345,20.6868276 C3.13613793,20.6853103 2.78717241,20.5396552 2.5262069,20.2764138 L1.92386207,19.6695172 C1.66213793,19.4062759 1.51875862,19.0565517 1.52027586,18.6863448 C1.52103448,18.3146207 1.66744828,17.9664138 1.93068966,17.7046897 L2.91310345,16.7298621 L5.47268966,19.3084138 L4.49027586,20.2832414 C4.22855172,20.5434483 3.88110345,20.6868276 3.51165517,20.6868276 L3.51165517,20.6868276 Z" id="Fill-139" fill="#0073AA"></path>
            <path d="M10.9006207,16.8975172 C7.58772414,16.8975172 4.90296552,14.2127586 4.90296552,10.9006207 C4.90296552,7.58848276 7.58772414,4.90296552 10.9006207,4.90296552 C14.2127586,4.90296552 16.8975172,7.58848276 16.8975172,10.9006207 C16.8975172,14.2127586 14.2127586,16.8975172 10.9006207,16.8975172 Z M10.9006207,0.568965517 C5.19427586,0.568965517 0.568965517,5.19427586 0.568965517,10.9006207 C0.568965517,16.6062069 5.19427586,21.2322759 10.9006207,21.2322759 C16.6062069,21.2322759 21.2315172,16.6062069 21.2315172,10.9006207 C21.2315172,5.19427586 16.6062069,0.568965517 10.9006207,0.568965517 L10.9006207,0.568965517 Z" id="Fill-140" fill="#FFFFFF"></path>
            <path d="M10.9006207,5.47193103 C7.90710345,5.47193103 5.47193103,7.90710345 5.47193103,10.9006207 C5.47193103,13.8933793 7.90710345,16.3285517 10.9006207,16.3285517 C13.8933793,16.3285517 16.3285517,13.8933793 16.3285517,10.9006207 C16.3285517,7.90710345 13.8933793,5.47193103 10.9006207,5.47193103 Z M10.9006207,17.4664828 C7.27972414,17.4664828 4.334,14.5207586 4.334,10.9006207 C4.334,7.27972414 7.27972414,4.334 10.9006207,4.334 C14.5207586,4.334 17.4664828,7.27972414 17.4664828,10.9006207 C17.4664828,14.5207586 14.5207586,17.4664828 10.9006207,17.4664828 Z M10.9006207,1.13793103 C5.51744828,1.13793103 1.13793103,5.51744828 1.13793103,10.9006207 C1.13793103,16.2837931 5.51744828,20.6633103 10.9006207,20.6633103 C16.2830345,20.6633103 20.6625517,16.2837931 20.6625517,10.9006207 C20.6625517,5.51744828 16.2830345,1.13793103 10.9006207,1.13793103 Z M10.9006207,21.8012414 C4.89006897,21.8012414 0,16.9111724 0,10.9006207 C0,4.89006897 4.89006897,0 10.9006207,0 C16.9111724,0 21.8004828,4.89006897 21.8004828,10.9006207 C21.8004828,16.9111724 16.9111724,21.8012414 10.9006207,21.8012414 L10.9006207,21.8012414 Z" id="Fill-141" fill="#0073AA"></path>
            <path d="M1.59386207,6.43613793 L5.45524138,8.39868966 C6.00144828,7.2122069 6.91862069,6.23206897 8.06413793,5.61606897 L6.09324138,1.75924138 C4.13448276,2.79172414 2.5557931,4.43565517 1.59386207,6.43613793" id="Fill-142" fill="#D1E8F0"></path>
            <path d="M15.6867586,1.74937931 L13.7242069,5.61 C14.8712414,6.22372414 15.7906897,7.20158621 16.339931,8.38655172 L20.1967586,6.41565517 C19.2310345,4.41744828 17.6477931,2.77731034 15.6867586,1.74937931" id="Fill-143" fill="#D1E8F0"></path>
            <path d="M20.0010345,15.7914483 L16.1335862,13.8258621 C15.5357931,14.8917241 14.6216552,15.7527586 13.5186207,16.2898621 L15.4895172,20.1466897 C17.4057931,19.1931034 18.9882759,17.672069 20.0010345,15.7914483" id="Fill-144" fill="#D1E8F0"></path>
            <path d="M6.33068966,20.1557931 L8.29324138,16.2951724 C7.18944828,15.7603448 6.2737931,14.9015862 5.67372414,13.8364828 L1.80931034,15.811931 C2.82586207,17.6895172 4.41289655,19.2067586 6.33068966,20.1557931" id="Fill-145" fill="#D1E8F0"></path>
            <path d="M2.36234483,6.18806897 L5.20944828,7.63551724 C5.72606897,6.73731034 6.45206897,5.96655172 7.31537931,5.40062069 L5.85731034,2.54668966 C4.40455172,3.4282069 3.18924138,4.69510345 2.36234483,6.18806897 Z M5.72455172,9.174 L0.840551724,6.69103448 L1.0817931,6.18882759 C2.09075862,4.08896552 3.77717241,2.33731034 5.82848276,1.25627586 L6.33827586,0.987724138 L8.82427586,5.85351724 L8.33344828,6.11751724 C7.30324138,6.67131034 6.4642069,7.56572414 5.97186207,8.63613793 L5.72455172,9.174 L5.72455172,9.174 Z" id="Fill-146" fill="#0073AA"></path>
            <path d="M14.4729655,5.39303448 C15.3370345,5.95668966 16.0653103,6.72593103 16.5834483,7.62337931 L19.4275172,6.16986207 C18.5983448,4.67841379 17.3792414,3.41455172 15.9249655,2.53682759 L14.4729655,5.39303448 Z M16.0721379,9.16262069 L15.8233103,8.62551724 C15.3286897,7.55662069 14.4881379,6.66372414 13.4556552,6.11144828 L12.964069,5.84896552 L15.4402069,0.977862069 L15.9507586,1.24565517 C18.0051034,2.32213793 19.6945517,4.07075862 20.7088276,6.16834483 L20.9508276,6.66903448 L16.0721379,9.16262069 L16.0721379,9.16262069 Z" id="Fill-147" fill="#0073AA"></path>
            <path d="M14.278,16.5250345 L15.7330345,19.3728966 C17.1630345,18.5588966 18.3495172,17.4156552 19.2082759,16.0266207 L16.3422069,14.570069 C15.8058621,15.3658621 15.1041379,16.0304138 14.278,16.5250345 Z M15.2391724,20.9068276 L12.7478621,16.0326897 L13.2697931,15.7785517 C14.2749655,15.2892414 15.0935172,14.5177241 15.6366897,13.5474483 L15.9037241,13.0710345 L20.7778621,15.547931 L20.5017241,16.0615172 C19.4297931,18.0521379 17.7835862,19.6406897 15.7428966,20.6557241 L15.2391724,20.9068276 L15.2391724,20.9068276 Z" id="Fill-148" fill="#0073AA"></path>
            <path d="M2.60282759,16.0455862 C3.46310345,17.4315862 4.65337931,18.5710345 6.08565517,19.3827586 L7.53462069,16.5318621 C6.70772414,16.0387586 6.00524138,15.3764828 5.46662069,14.5822069 L2.60282759,16.0455862 Z M6.58331034,20.9151724 L6.07882759,20.6663448 C4.03358621,19.6543448 2.38510345,18.0695862 1.30937931,16.0827586 L1.03172414,15.569931 L5.90206897,13.0816552 L6.16986207,13.5573103 C6.71531034,14.5268276 7.53537931,15.296069 8.54131034,15.7823448 L9.06324138,16.0357241 L6.58331034,20.9151724 L6.58331034,20.9151724 Z" id="Fill-149" fill="#0073AA"></path>
        </g>
    </g>
</symbol>

<symbol id="icon-content" width="201" height="120.4" data-name="Layer 1" xmlns="http://www.w3.org/2000/svg" viewBox="0 0 199.4 125.23"><defs/><path d="M63.6 102.72h8.2v-1.5h-8.2z" fill="#0073aa" fill-rule="evenodd"/><path d="M124.7 108.72v-54.7a3.1 3.1 0 00-3.1-3H75.9a3 3 0 00-3.1 3v54.7h51.9" fill="#fff" fill-rule="evenodd"/><path d="M72.21 60.52v-6.4a2.92 2.92 0 012.6-3.1h46.7a2.92 2.92 0 012.6 3.1v6.4h-51.9" fill="#dbdbdb" fill-rule="evenodd"/><path d="M72.8 60.52h51.9v-1.5H72.8z" fill-rule="evenodd"/><path d="M76.7 85.62h31.8v-22H76.7z" fill="#dbdbdb" fill-rule="evenodd"/><path data-name="Fill-165" d="M110 78.02h9.9v-14.4H110z" fill="#dbdbdb" fill-rule="evenodd"/><path d="M80.8 102.02h11.6v-14.5H80.8z" fill="#d1e8f0" fill-rule="evenodd"/><path d="M71.7 108.32v-54.7a3.74 3.74 0 013.9-3.7h45.7a3.87 3.87 0 013.9 3.7v30.7h-1.5v-30.7a2.24 2.24 0 00-2.3-2.2H75.5a2.24 2.24 0 00-2.29 2.2v54.7z" fill-rule="evenodd"/><path d="M70.21 104.42a8.8 8.8 0 11-8.8-8.7 8.73 8.73 0 018.8 8.7M136.21 108.82a9.7 9.7 0 11-9.7-9.6 9.62 9.62 0 019.7 9.6" fill="#fff" fill-rule="evenodd"/><path d="M159.3 108.92a14.4 14.4 0 11-14.4-14.3 14.32 14.32 0 0114.4 14.3" fill="#fff" fill-rule="evenodd"/><path d="M172.6 114.92a9 9 0 11-9-8.9 8.94 8.94 0 019 8.9" fill="#fff" fill-rule="evenodd"/><path d="M192.8 109.02a14.5 14.5 0 11-14.5-14.5 14.51 14.51 0 0114.5 14.5M56.1 104.82a11.5 11.5 0 11-11.5-11.4 11.42 11.42 0 0111.5 11.4" fill="#fff" fill-rule="evenodd"/><path d="M73.3 112.82a11.5 11.5 0 11-11.5-11.4 11.42 11.42 0 0111.5 11.4M30.7 115.02a10.2 10.2 0 11-10.2-10.1 10.16 10.16 0 0110.2 10.1" fill="#fff" fill-rule="evenodd"/><path d="M43.6 114.02a8 8 0 11-8-8 8 8 0 018 8" fill="#fff" fill-rule="evenodd"/><path d="M70.8 104.22h-1.7a7.9 7.9 0 00-15.8 0h-1.7a9.6 9.6 0 0119.2 0M137.9 109.62h-1.69a8.8 8.8 0 00-17.6 0h-1.7a10.5 10.5 0 0121 0M181.4 56.42h-4.9a.9.9 0 010-1.8h4.9a.9.9 0 110 1.8" fill-rule="evenodd"/><path d="M178.8 59.02a.9.9 0 01-.9-.9v-4.9a.9.9 0 011.8 0v4.9a.9.9 0 01-.9.9M28.7 8.52h-4.9a.9.9 0 110-1.8h4.9a.9.9 0 01.9.9 1.06 1.06 0 01-.9.9" fill-rule="evenodd"/><path d="M26.1 11.02a.9.9 0 01-.89-.9v-4.8a.9.9 0 111.8 0v4.9a1 1 0 01-.9.8M115.4 5.12a.86.86 0 01-.6-.3.91.91 0 010-1.2l3.5-3.4a.91.91 0 011.2 0 .91.91 0 010 1.2l-3.5 3.4a.86.86 0 01-.6.3" fill-rule="evenodd"/><path d="M118.9 5.12a.86.86 0 01-.6-.3l-3.5-3.4a.91.91 0 010-1.2.91.91 0 011.2 0l3.5 3.4a.91.91 0 010 1.2.86.86 0 01-.6.3" fill-rule="evenodd"/><path data-name="Fill-424" d="M12.3 70.12a.86.86 0 01-.6-.3.91.91 0 010-1.2l3.51-3.4a.85.85 0 111.2 1.2l-3.5 3.4a.71.71 0 01-.6.3" fill-rule="evenodd"/><path data-name="Fill-425" d="M15.8 70.12a.86.86 0 01-.6-.3l-3.5-3.4a.85.85 0 111.2-1.2l3.5 3.4a.91.91 0 010 1.2.86.86 0 01-.6.3" fill-rule="evenodd"/><path d="M162.7 79.22h25v-1.7h-25zM36.7 8.52h46.7v-1.8H36.7zM143.21 9.62h25v-1.7h-25zM136.3 9.62h4.5v-1.7h-4.5zM160 84.72a1.5 1.5 0 11-1.5-1.5 1.54 1.54 0 011.5 1.5M16.8 20.82a1.5 1.5 0 11-1.5-1.5 1.54 1.54 0 011.5 1.5M188.6 29.92a1.5 1.5 0 11-1.5-1.5 1.47 1.47 0 011.5 1.5M74.1 32.82a1 1 0 11-1-1 1 1 0 011 1" fill-rule="evenodd"/><path d="M68.7 124.62h8.51v-39.1h-8.5z" fill="#b7b7b7" fill-rule="evenodd"/><path d="M70.3 86.02v36.2a1.24 1.24 0 001.3 1.2H77v-37.4zm8.5 38.8h-7.3c-1.6 0-2.9-.9-2.9-2.5v-38h10.2v40.5z" fill-rule="evenodd"/><path d="M64.1 91.12h8.5l2.8-5.6h-8.5l-2.8 5.6" fill="#dbdbdb" fill-rule="evenodd"/><path d="M65.7 90.02h6.6l1.9-4h-6.6zm7.7 1.7H63l3.6-7.4H77z" fill-rule="evenodd"/><path d="M126 124.62H77.9v-39.1H129v36.2a3 3 0 01-3 2.9" fill="#5b5b5b" fill-rule="evenodd"/><path d="M127.21 113.52h1.7v-6.4h-1.7z" fill="#0073aa" fill-rule="evenodd"/><path d="M76.7 124.72v-40.4h52.8v18.9h-1.7v-17.2H78.5v37.5h46.8a2.48 2.48 0 002.5-2.5v-3.5h1.7v3.5c0 2.3-1.5 3.7-3.9 3.7z" fill-rule="evenodd"/><path d="M132.9 91.12H81.8l-2.8-5.6h51.1l2.8 5.6" fill="#dbdbdb" fill-rule="evenodd"/><path d="M82.5 90.02h49.2l-1.9-4H80.6zm51.9 1.7h-53l-3.6-7.4h53z" fill-rule="evenodd"/><path d="M152.1 51.42h-14.8l-2.4 4.2 9.8 11.2 9.8-11.2-2.4-4.2" fill="#dbdbdb" fill-rule="evenodd"/><path d="M140.7 55.62l-2.4-4.2-2.3 4.3 4.7-.1" fill="#b7b7b7" fill-rule="evenodd"/><path d="M145.4 55.52l-2.4-4.1-2.4 4.1h4.8" fill="#dbdbdb" fill-rule="evenodd"/><path d="M149.9 55.52l-2.5-4.1-2.19 4.1h4.7M145.21 55.92v10.4l4.8-10.4h-4.8" fill="#b7b7b7" fill-rule="evenodd"/><path d="M136 55.92v.1l9.4 10.6-4.9-10.7H136" fill="#b7b7b7" fill-rule="evenodd"/><path d="M154.6 55.92v.1l-9.39 10.6 4.9-10.7h4.5" fill="#b7b7b7" fill-rule="evenodd"/><path d="M144.6 67.82l-10.9-12.4 3-5.2h11.4v1.7h-10.4l-1.9 3.3 8.8 10 8.8-10-1.9-3.3h-.9v-1.7h1.9l3 5.2-10.9 12.4" fill-rule="evenodd"/><path d="M148.6 51.92h1.61v-1.7h-1.6zM134.9 56.52h19.6v-1.7h-19.6z" fill-rule="evenodd"/><path d="M144.4 66.62l-4.9-11.1 1.5-.7 4.9 11.1-1.5.7" fill-rule="evenodd"/><path d="M145.6 66.62l-1.6-.7 5-11.1 1.5.7-4.9 11.1" fill-rule="evenodd"/><path d="M144 66.82h1.8v-10.9H144zM139.6 56.52l-2.39-4.3 1.4-.8 2.5 4.2-1.5.9" fill-rule="evenodd"/><path d="M144.21 56.52l-2.5-4.3 1.5-.8 2.5 4.2-1.5.9M148.8 56.52l-2.5-4.3 1.5-.8 2.5 4.2-1.5.9" fill-rule="evenodd"/><path d="M151.21 56.52l-1.4-.9 2.4-4.2 1.5.8-2.5 4.3M145.5 56.52l-1.5-.9 2.5-4.2 1.5.8-2.5 4.3M140.9 56.52l-1.4-.9 2.4-4.2 1.5.8-2.5 4.3" fill-rule="evenodd"/><path d="M101.6 16.12a2.9 2.9 0 112.9-2.9 2.9 2.9 0 01-2.9 2.9zm7.8-4.3H108a9.49 9.49 0 00-.9-2.1l1-1a.85.85 0 000-1.3l-.8-.8a.85.85 0 00-1.3 0l-1 1a6.67 6.67 0 00-2.1-.9v-1.3a.9.9 0 00-.9-.9h-1a.9.9 0 00-.9.9v1.4a11.92 11.92 0 00-2 .8l-1-1a.85.85 0 00-1.3 0l-.8.8a.85.85 0 000 1.3l1 1a7.22 7.22 0 00-.9 2h-1.4a.9.9 0 00-.9.9v1.1a.9.9 0 00.9.9h1.4a9.49 9.49 0 00.9 2.1l-1 1a.85.85 0 000 1.3l.8.8a.85.85 0 001.3 0l1-1a6.67 6.67 0 002.1.9v1.4a.9.9 0 00.9.9h1.11a.9.9 0 00.9-.9v-1.4a18 18 0 002.1-.8l1 1a.85.85 0 001.3 0l.8-.8a.85.85 0 000-1.3l-1-1a6.67 6.67 0 00.9-2.1h1.4a.9.9 0 00.9-.9v-1.1a1.09 1.09 0 00-1.11-.9z" fill="#fff" fill-rule="evenodd"/><path d="M101.3 10.92a2.1 2.1 0 102.1 2.1 2.11 2.11 0 00-2.1-2.1zm0 5.8a3.8 3.8 0 113.8-3.8 3.8 3.8 0 01-3.8 3.8zm-3.7.7l.6.4a4.49 4.49 0 001.8.7l.7.2v2.1l1.1.1.1-2.2.7-.1a6.7 6.7 0 001.8-.7l.6-.4 1.5 1.5.8-.8-1.5-1.6.4-.6a4.49 4.49 0 00.7-1.8l.2-.7h2.11l.1-1.1-.1-.1h-2.1l-.2-.7a6.7 6.7 0 00-.7-1.8l-.4-.6 1.5-1.5-.8-.8-1.6 1.5-.6-.4a4.84 4.84 0 00-1.8-.7l-.7-.2v-2l-1.1-.1-.1 2.2-.6.2a6.7 6.7 0 00-1.8.7l-.6.4-1.4-1.6-.9.7 1.5 1.6-.4.7a4.94 4.94 0 00-.8 1.8l-.2.7h-2.1l-.1 1.1 2.2.1.1.7a6.7 6.7 0 00.7 1.8l.4.6-1.5 1.5.9.7 1.6-1.5zm4.2 5.1h-1.1a2.11 2.11 0 01-1.3-.5 1.9 1.9 0 01-.5-1.3v-.8c-.4-.1-.7-.3-1.1-.4l-.6.5a1.9 1.9 0 01-1.3.5 2.11 2.11 0 01-1.3-.5l-.8-.8a1.75 1.75 0 010-2.5l.6-.5a3.58 3.58 0 01-.4-1.1h-.79a1.79 1.79 0 01-1.8-1.8v-1.1a2.11 2.11 0 01.5-1.3 1.9 1.9 0 011.3-.5h.8c.1-.4.3-.7.4-1.1l-.5-.6a1.9 1.9 0 01-.5-1.3 2.11 2.11 0 01.5-1.3l.8-.8a1.75 1.75 0 012.5 0l.8 1a4.18 4.18 0 011-.4v-.8a1.79 1.79 0 011.8-1.8h1.1a1.79 1.79 0 011.8 1.8v.8c.4.1.7.3 1.1.4l.6-.5a1.9 1.9 0 011.3-.5 1.66 1.66 0 011.3.5l.8.8a1.9 1.9 0 01.5 1.3 2.11 2.11 0 01-.5 1.3l-.5.5a3.58 3.58 0 01.4 1.1h.8a1.79 1.79 0 011.8 1.8v1.1a1.79 1.79 0 01-1.8 1.8h-.8c-.1.4-.3.7-.4 1.1l.5.6a1.85 1.85 0 01.5 1.2 2.11 2.11 0 01-.5 1.3l-.8.7a1.75 1.75 0 01-2.5 0l-.5-.6a3.58 3.58 0 01-1.1.4v.8a2.45 2.45 0 01-2.11 1.5zM44.4 116.82a12.3 12.3 0 1110.9-18.1l-1.5.8a10.43 10.43 0 00-9.4-5.6 10.6 10.6 0 100 21.2v1.7" fill-rule="evenodd"/><path d="M28.1 113.42h-1.7a9 9 0 011.7-5.2 8.72 8.72 0 015-3.4l.4 1.7a7.28 7.28 0 00-4.1 2.8 6.68 6.68 0 00-1.3 4.1M55.6 116.82h-1.7a9 9 0 011.7-5.2 8.72 8.72 0 015-3.4l.4 1.7a7.28 7.28 0 00-4.1 2.8 6.68 6.68 0 00-1.3 4.1" fill-rule="evenodd"/><path d="M20.21 125.12c-6.3 0-11-4.5-11-10.4a11 11 0 0120.2-6l-1.4.9a9.32 9.32 0 00-17.1 5.1c0 5 4 8.7 9.3 8.7v1.7M157.9 107.02a13.51 13.51 0 00-24.7-5.7l-1.4-.9a15.19 15.19 0 0127.8 6.4l-1.7.2" fill-rule="evenodd"/><path d="M155.21 114.62h-1.7a9.82 9.82 0 019.8-9.8v1.7a8.26 8.26 0 00-8.1 8.1" fill-rule="evenodd"/><path d="M176.9 123.52c7.5 0 14.8-7.3 14.8-14.8a13.7 13.7 0 00-27-3.2 16.48 16.48 0 00-.4 3.2h-1.7a13.42 13.42 0 01.4-3.5 15.42 15.42 0 0130.4 3.5c0 8.4-6.9 15.8-15.4 15.8z" fill-rule="evenodd"/><path d="M136.3 116.52c0 4.6-5.9 8.3-13.2 8.3s-13.2-3.7-13.2-8.3 5.9-8.3 13.2-8.3 13.2 3.8 13.2 8.3" fill="#fff" fill-rule="evenodd"/><path d="M135.7 113.12a8.3 8.3 0 11-8.3-8.3 8.28 8.28 0 018.3 8.3" fill="#fff" fill-rule="evenodd"/><path d="M124.4 114.32a10.67 10.67 0 01-10.6 10.6 10.54 10.54 0 01-10.59-10.6 10.6 10.6 0 1121.2 0" fill="#fff" fill-rule="evenodd"/><path d="M120.9 112.82h-1.69a9.13 9.13 0 019.1-9.1 9.39 9.39 0 015.2 1.6l-1 1.4a7 7 0 00-4.2-1.3 7.38 7.38 0 00-7.4 7.4M176.5 118.42l-1.4-1.1a4.59 4.59 0 001-2.5 4.66 4.66 0 00-4.3-4.9l.1-1.7a6.29 6.29 0 015.9 6.7 5.6 5.6 0 01-1.3 3.5" fill-rule="evenodd"/><path d="M101.9 114.02a11.53 11.53 0 0121.1-6.3l-1.4.9a9.93 9.93 0 00-8.2-4.4 9.8 9.8 0 00-9.8 9.7c0 5.4 2.8 9.4 9.2 9.4l.9 1.3c-6.3 0-11.8-4.3-11.8-10.6z" fill-rule="evenodd"/><path d="M0 124.82h3.1v-1.7H0z" fill="none"/><path d="M192.4 124.82h7v-1.7h-7zM3.4 125.22l187.7-.4v-1.7l-187.7.3zM79 56.42h1.6v-1.7H79z" fill-rule="evenodd"/><path data-name="Path" d="M83.6 56.42h1.61v-1.7h-1.6zM88.21 56.42h1.6v-1.7h-1.6z" fill-rule="evenodd"/><path d="M130.1 30.42l-.7 1.6h1.3zm1.6 3.8l-.5-1.2h-2.3l-.5 1.2h-1.3l2.3-5.4h1.2l2.3 5.4zM135.21 33.22h.8a2 2 0 00.8-.1.57.57 0 000-1 2.22 2.22 0 00-.9-.1h-.7v1.2zm0-2.2h.6c.3 0 .6 0 .7-.1s.2-.2.2-.5a.59.59 0 00-.2-.5c-.1-.1-.4-.1-.8-.1h-.6v1.2zm1.2 3.2h-2.4v-5.4h2.1a2.22 2.22 0 01.9.1.92.92 0 01.6.4 1.8 1.8 0 01.4.9 1 1 0 01-.4.9l-.2.1-.2.1a2 2 0 01.8.4 1.14 1.14 0 01.3.8 1.28 1.28 0 01-.4 1 1.58 1.58 0 01-1.5.7zM141.4 33.22a1.51 1.51 0 001.4-.7l.8.8a2.7 2.7 0 01-2.2 1 2.8 2.8 0 110-5.6 2.7 2.7 0 012.2 1l-.7.8a1.85 1.85 0 00-2.6-.3 1.69 1.69 0 000 2.4 1.16 1.16 0 001.1.6M112.3 29.42h11.3v-1.7h-11.3zM107.7 32.82h16.2v-1.7h-16.2zM103.1 36.22h20.6v-1.7h-20.6z" fill-rule="evenodd"/><path d="M71.7 88.82l.1-.1-.1.1" fill="#0073aa" fill-rule="evenodd"/><path d="M76.3 67.72l-3.6 7.5a15.94 15.94 0 01-.3 6.5 15.57 15.57 0 11-11-19 16.84 16.84 0 017.4 4.4l7.5.6" fill="#b7b7b7" fill-rule="evenodd"/><path d="M57.3 63.02a14.57 14.57 0 00-7.3 2 15 15 0 00-6.9 8.9 14.66 14.66 0 0010.4 17.9 14.63 14.63 0 0011.2-1.5 15 15 0 006.9-8.9 15.62 15.62 0 00.3-6.1v-.3l3.2-6.6-6.7-.5-.2-.2a15 15 0 00-6.9-4.2 19 19 0 00-4-.5zm.1 31a15.93 15.93 0 01-4.3-.6 16.28 16.28 0 01-10-7.6 15.86 15.86 0 01-1.6-12.4 16.24 16.24 0 017.71-9.9 16.05 16.05 0 0112.5-1.6 16.28 16.28 0 017.5 4.4l8.5.7-4 8.4a15.8 15.8 0 01-.4 6.5 16.56 16.56 0 01-15.9 12.1z" fill-rule="evenodd"/><path d="M67.5 80.42a10.41 10.41 0 10-12.7 7.1 10.28 10.28 0 0012.7-7.1" fill="#fff" fill-rule="evenodd"/><path d="M54.9 84.12l-5.3-5.4 3.2-3.2 2.1 2.1 1.1-1.1 5.3-5.2 3.2 3.2-9.6 9.6 4.4-5.7M56.9 60.12h1.7v-3.7h-1.7zM39.1 88.82l-.8-1.5 3.3-1.9.8 1.5-3.3 1.9M36.9 83.72l-.5-1.7 3.7-.9.4 1.6-3.6 1M39.8 78.22H36v-1.7h3.8v1.7M40.3 73.62l-3.7-1 .5-1.6 3.6 1-.4 1.6M41.9 69.32l-3.3-1.8.9-1.5 3.3 1.9-.9 1.4M44.6 65.62l-2.7-2.6 1.31-1.3 2.6 2.7-1.2 1.2M48.21 62.72l-1.9-3.2 1.5-.9 1.9 3.3-1.5.8M52.4 60.92l-1-3.7 1.7-.4 1 3.6-1.7.5M51.5 23.32a8.5 8.5 0 108.6 8.5 8.58 8.58 0 00-8.6-8.5zm0 18.8a10.2 10.2 0 1110.3-10.2 10.26 10.26 0 01-10.3 10.2z" fill-rule="evenodd"/><path d="M55.3 41.22l-1.5-.9a16.15 16.15 0 002.2-8.4 15.78 15.78 0 00-2.2-8.3l1.5-.9a17.28 17.28 0 012.4 9.2 16.55 16.55 0 01-2.4 9.3M48.3 41.22a17.44 17.44 0 01-2.5-9.3 18.24 18.24 0 012.41-9.2l1.5.9a16 16 0 00-2.2 8.3 16.41 16.41 0 002.2 8.4l-1.4.9M50.4 41.52h1.7v-18.8h-1.7z" fill-rule="evenodd"/><path d="M42.4 32.42h18.81v-1.7H42.4zM43.5 27.82h16.3v-1.7H43.5zM43.5 37.02H60v-1.7H43.5z" fill-rule="evenodd"/></symbol>



<symbol id="icon-done" data-name="Layer 1" xmlns="http://www.w3.org/2000/svg" width="200" height="125" viewBox="0 0 200.41 125"><defs/><path d="M55.97 89.76H45.26a4.15 4.15 0 01-4.13-4.18v-.23a4.15 4.15 0 014.13-4.19 5.2 5.2 0 015.57-3.69 5.59 5.59 0 01.32-.65 7.16 7.16 0 016.3-3.74 7.21 7.21 0 017.14 6.19l-1.74.27a5.44 5.44 0 00-9.59-2.72 4.87 4.87 0 00-.59.86 5.44 5.44 0 00-.41 1.06l-.25.82-.86-.21a3.45 3.45 0 00-4.34 2.84l-.12.75h-1.43a2.4 2.4 0 00-2.41 2.41v.24a2.4 2.4 0 002.41 2.4h10.71v1.77" fill-rule="evenodd"/><path d="M53.46 80.59h-1.75a1.39 1.39 0 00-1.38-1.4v-1.77a3.15 3.15 0 013.13 3.17M133.35 64.59a5.46 5.46 0 00-4.61-2.54 5.4 5.4 0 00-2.8.78l-.9-1.53a7.21 7.21 0 019.78 2.32l-1.47 1" fill-rule="evenodd"/><path d="M145.19 77.04h-15.22v-1.78h15.22a3.07 3.07 0 003-3.08v-.29a3.08 3.08 0 00-3-3.09h-.81l-.18-.64a4.75 4.75 0 00-4.53-3.44 4.61 4.61 0 00-2.54.76l-1.14.74-.2-1.35a6.74 6.74 0 00-11.87-3.37 7.5 7.5 0 00-.73 1.07 7.17 7.17 0 00-.56 1.31l-.25.82-.81-.22a4.18 4.18 0 00-1.14-.16v-1.78a5.49 5.49 0 01.8.06 8.07 8.07 0 01.43-.89 8.25 8.25 0 01.92-1.35 8.48 8.48 0 0114.68 3.06 6.39 6.39 0 012.41-.47 6.5 6.5 0 016 4.1 4.84 4.84 0 014.32 4.84v.29a4.83 4.83 0 01-4.8 4.86M135.2 19.83h-5a.89.89 0 010-1.77h5a.89.89 0 010 1.77" fill-rule="evenodd"/><path d="M132.7 22.35a.88.88 0 01-.87-.89v-5.04a.88.88 0 111.75 0v5.05a.88.88 0 01-.88.89M44.89 19.83h-5a.89.89 0 010-1.77h5a.89.89 0 010 1.77" fill-rule="evenodd"/><path d="M42.39 22.35a.88.88 0 01-.87-.89v-5.04a.88.88 0 111.75 0v5.05a.88.88 0 01-.88.89M190.45 68.86a.86.86 0 01-.62-.26.89.89 0 010-1.25l3.54-3.58a.88.88 0 011.24 0 .91.91 0 010 1.26l-3.54 3.57a.83.83 0 01-.62.26" fill-rule="evenodd"/><path d="M193.99 68.86a.83.83 0 01-.62-.26l-3.54-3.57a.91.91 0 010-1.26.88.88 0 011.24 0l3.54 3.58a.89.89 0 010 1.25.85.85 0 01-.62.26M55.45 14.78h47.69V13H55.45v1.78zM4.87 69.66h29.92v-1.77H4.87v1.77zM160.33 79h22.33v-1.77h-22.33V79zM185.35 79h3.04v-1.77h-3.04V79zM103.16 32.22a1.57 1.57 0 11-1.57-1.58 1.57 1.57 0 011.57 1.58M183.49 57.15a1.85 1.85 0 11-1.85-1.87 1.86 1.86 0 011.85 1.87" fill-rule="evenodd"/><path d="M159.52 39.4h7.31v-.39c.16-2.51 3.62-6.73 5.73-9.19A17.53 17.53 0 00159.52.89V39.4" fill="#dbdbdb" fill-rule="evenodd"/><path d="M159.51 39.4h-7.25v-.39c-.16-2.51-3.62-6.73-5.73-9.19A17.53 17.53 0 01159.51.89V39.4" fill="#fff" fill-rule="evenodd"/><path d="M159.4 39.4h4.16v-.39c.08-2.51 2-6.73 3.22-9.19a26.49 26.49 0 002.42-11.47c0-9.65-4.41-17.48-9.84-17.48v38.51" fill="#fff" fill-rule="evenodd"/><path d="M159.39 39.4h-4.13v-.39c-.1-2.51-2.11-6.73-3.31-9.19a26.49 26.49 0 01-2.44-11.47c0-9.65 4.41-17.48 9.84-17.48v38.51" fill="#dbdbdb" fill-rule="evenodd"/><path d="M160.26 38.52h2.46c.2-2 1.28-5 3.28-9.09a25.67 25.67 0 002.33-11.08c0-8.45-3.63-15.67-8.09-16.51zm4.14 1.77h-5.89V0h.88c6 0 10.72 8.07 10.72 18.37a27.67 27.67 0 01-2.49 11.84c-2.52 5.14-3.1 7.64-3.14 8.83v1.25z" fill-rule="evenodd"/><path d="M156.06 38.52h2.46V1.85c-4.54.82-8.1 7.92-8.1 16.52a25.79 25.79 0 002.32 11.06c1.52 3.13 3.06 6.62 3.32 9.09zm4.2 1.77h-5.88v-1.25c-.09-2.43-2.28-6.91-3.21-8.83a27.52 27.52 0 01-2.54-11.86c0-10.3 4.71-18.37 10.72-18.37h.91v40.29z" fill-rule="evenodd"/><path d="M152.99 38.52h13c.34-2.07 2.22-5 5.85-9.25a16.72 16.72 0 00-1.14-23 16.16 16.16 0 00-12.29-4.46 16.64 16.64 0 00-11.25 27.47c3.46 4.01 5.42 7.07 5.83 9.24zm13.59 1.77h-14.12a1.14 1.14 0 01-1.14-1.09c-.06-1.65-2.06-4.85-5.48-8.75A18.42 18.42 0 01158.34.04a17.88 17.88 0 0113.6 4.94 18.52 18.52 0 011.26 25.46c-4.39 5.1-5.4 7.51-5.47 8.63v.14a1.15 1.15 0 01-1.14 1.08z" fill-rule="evenodd"/><path d="M161.32 62.64h-3.25a4.71 4.71 0 01-4.67-4.72v-6h12.59v6a4.71 4.71 0 01-4.67 4.72" fill="#b7b7b7" fill-rule="evenodd"/><path d="M155.07 57.92v-6h-1.67v6a4.71 4.71 0 004.67 4.72h1.67a4.71 4.71 0 01-4.67-4.72" fill="#e7f7ff" fill-rule="evenodd"/><path d="M163.12 51.92v6a4.71 4.71 0 01-4.67 4.72h2.87a4.71 4.71 0 004.67-4.72v-6h-2.87" fill="#dbdbdb" fill-rule="evenodd"/><path fill="#8e8e8e" fill-rule="evenodd" d="M155.08 54.54v-2.62h8.05v1.48l-8.05 1.14"/><path d="M154.26 52.8v5.12a3.81 3.81 0 003.78 3.83h3.26a3.82 3.82 0 003.79-3.83V52.8zm7 10.72h-3.2a5.58 5.58 0 01-5.54-5.6v-6.89h14.34v6.89a5.57 5.57 0 01-5.54 5.6z" fill-rule="evenodd"/><path d="M166.48 51.84h-13.57a1.18 1.18 0 01-1.17-1.18 1.18 1.18 0 011.17-1.18h13.57a1.17 1.17 0 011.16 1.18 1.17 1.17 0 01-1.16 1.18" fill="#b7b7b7" fill-rule="evenodd"/><path d="M152.91 50.35a.29.29 0 000 .58h13.57a.29.29 0 100-.58zm13.57 2.36h-13.57a2.07 2.07 0 010-4.14h13.57a2.07 2.07 0 010 4.14z" fill-rule="evenodd"/><path fill-rule="evenodd" d="M154.5 49.77l-3.15-10.29 1.67-.53 3.16 10.3-1.68.52M164.68 49.76l-1.69-.49 2.86-10.11 1.69.49-2.86 10.11"/><path d="M72.14 72.89l36.15 51H34.41l37.24-51a.3.3 0 01.49 0" fill="#dbdbdb" fill-rule="evenodd"/><path d="M33.71 123.35l37.23-51a1.19 1.19 0 01.95-.48 1.16 1.16 0 011 .49L85.1 89.52l-1.15 1.73-12.07-17.19-36.76 50.29z" fill-rule="evenodd"/><path fill="#96bcd2" fill-rule="evenodd" d="M94.69 104.68L82.38 87.32l12.31 17.36"/><path fill="#b7b7b7" fill-rule="evenodd" d="M56.22 123.27l25.94-34.64 25.72 34.64H56.22z"/><path fill="#adadad" fill-rule="evenodd" d="M161.49 125H60.02L110 54.52 161.49 125"/><path fill="#fff" fill-rule="evenodd" d="M122.39 70.94l-2.19-2.8.13-.17-10.11-13.65-9.33 13.65h-.36l-2.33 2.97 3.75 5.28 2.44-3.33 6.08 8.57 6-8.22 2.18 2.98 3.74-5.28"/><path fill-rule="evenodd" d="M161.07 124.39l-51.06-70.06-49.56 70.04-1.43-1.04 50.97-72.04 52.5 72.03-1.42 1.07"/><path fill-rule="evenodd" d="M109.42 54.54h1.75V36.82h-1.75v17.72z"/><path fill="#b7b7b7" fill-rule="evenodd" d="M129.37 52.16h-12.09v-9.52h12.09l-1.88 4.76 1.88 4.76"/><path d="M118.15 51.27h9.92l-1.53-3.87 1.53-3.88h-9.92zm12.51 1.78h-14.27v-11.3h14.27l-2.23 5.65 2.23 5.65z" fill-rule="evenodd"/><path fill="#dbdbdb" fill-rule="evenodd" d="M110.36 48.98h12.1v-9.52h-12.1v9.52z"/><path d="M111.26 48.1h10.34v-7.75h-10.34zm-1.76 1.77h13.85v-11.3h-13.87zM18.9 104.7c-10.48-2.55-9.13-10.88-9.12-11l.13-.73h7.16v1.77h-5.61c0 1.81.66 6.45 7.84 8.19l-.4 1.73M37.49 104.7l-.41-1.73c7.23-1.75 7.89-6.38 7.85-8.19h-5.61v-1.77h7.15l.13.73c0 .08 1.37 8.41-9.11 11" fill-rule="evenodd"/><path d="M39.4 95.46a14.48 14.48 0 00-.74-4.56h-21a14.2 14.2 0 00-.75 4.56c0 6.59 4.35 13.19 9.94 14.09v8.8h2.61v-8.8c5.6-.9 9.94-7.5 9.94-14.09" fill="#dbdbdb" fill-rule="evenodd"/><path d="M27.51 110c-5.19-1.41-6.35-8-6.35-14.43a15.17 15.17 0 01.74-4.67h-2.52a15.17 15.17 0 00-.74 4.67c0 6.76 2.66 13.52 8.25 14.44a1.76 1.76 0 00.62 0" fill="#fff" fill-rule="evenodd"/><path fill-rule="evenodd" d="M23.08 91.79h2.05v-1.77h-2.05v1.77z"/><path d="M30.34 118.16h-4.32v-8.66c-5.55-1.31-9.94-7.52-9.94-14.26a14.23 14.23 0 01.78-4.65l.2-.57h4.11v1.66h-2.82a12.37 12.37 0 00-.52 3.56c0 6.14 4.22 12 9.2 12.76l.74.11v8.38h.82v-8.38l.73-.11c5-.77 9.21-6.62 9.21-12.76a12.73 12.73 0 00-.52-3.56H26.42v-1.66h12.84l.2.57a14.54 14.54 0 01.8 4.65c0 6.74-4.4 13-9.94 14.26v8.66" fill-rule="evenodd"/><path fill-rule="evenodd" d="M25.6 112.56h5.3v-1.78h-5.3v1.78zM25.6 115.73h5.3v-1.78h-5.3v1.78zM22.45 123.07H33.8v-3.72a.4.4 0 00-.4-.41H22.84a.4.4 0 00-.39.41zm13.1 1.77H20.69v-5.49a2.17 2.17 0 012.15-2.18H33.4a2.17 2.17 0 012.15 2.18v5.49z"/><path fill="#fff" fill-rule="evenodd" d="M24.61 121.91h7.03v-2.84h-7.03v2.84z"/><path fill-rule="evenodd" d="M26.43 121.37h3.3v-1.77h-3.3v1.77z"/><path fill="#0073aa" fill-rule="evenodd" d="M19.1 124.84h17.8v-1.77H19.1v1.77z"/><path fill-rule="evenodd" d="M193.34 124.75h7.07v-1.78h-7.07v1.78zM0 124.75h191.51v-1.78H0v1.78z"/><path d="M88.6 47.4a9.31 9.31 0 11-9.34-9.41 9.37 9.37 0 019.31 9.41" fill="#dbdbdb" fill-rule="evenodd"/><path d="M79.26 38.87a8.53 8.53 0 108.43 8.53 8.49 8.49 0 00-8.43-8.53zm0 18.84A10.31 10.31 0 1189.47 47.4a10.26 10.26 0 01-10.21 10.31z" fill-rule="evenodd"/><path fill-rule="evenodd" d="M78.42 35.62h1.75v-4.61h-1.75v4.61zM85.92 37.68l-1.51-.9 1.15-1.99 1.51.9-1.15 1.99M89.87 42.39l-.86-1.54 3.96-2.26.87 1.54-3.97 2.26M93.19 48.55l-2.28-.07.05-1.78 2.28.07-.05 1.78M92.69 56.65l-3.89-2.38.91-1.52 3.89 2.38-.91 1.52M84.94 60.14l-.89-2.02 1.6-.73.89 2.03-1.6.72M79.66 63.81l-1.76-.06.15-4.6 1.75.05-.14 4.61M72.64 59.8l-1.49-.94 1.21-1.95 1.49.94-1.21 1.95M65.34 55.78l-.81-1.58 4.04-2.13.81 1.57-4.04 2.14M65.39 47.73h2.27v-1.77h-2.27v1.77zM69.06 41.73l-3.83-2.51.96-1.49 3.82 2.51-.95 1.49M73.28 37.27l-.96-1.93 1.57-.8.96 1.94-1.57.79"/><path d="M177.31 123.41l1-5.94a1.94 1.94 0 00-1.89-2.28h-19.78a1.94 1.94 0 00-1.89 2.28l1 5.94h21.53" fill="#fff" fill-rule="evenodd"/><path d="M178.18 123.56l-1.73-.3 1.05-6.09a.92.92 0 00-.91-1.09H156.5a.92.92 0 00-.71.33 1 1 0 00-.2.76l1 6.09-1.73.3-1.05-6.08a2.76 2.76 0 01.59-2.21 2.67 2.67 0 012.05-1h20.09a2.66 2.66 0 012 1 2.76 2.76 0 01.59 2.21l-1.05 6.08" fill-rule="evenodd"/><path fill-rule="evenodd" d="M165.37 115.77h2.04v-6.83h-2.04v6.83z"/><path d="M177.89 101.07s.36 4.92-2.41 7.73-7.65 2.45-7.65 2.45-.36-4.93 2.42-7.74 7.64-2.44 7.64-2.44" fill="#dbdbdb" fill-rule="evenodd"/><path d="M177.03 101.94c-1.41 0-4.34.36-6.16 2.2s-2.13 4.81-2.17 6.23c1.41 0 4.33-.35 6.16-2.2s2.13-4.82 2.17-6.23zm-8.62 10.21h-1.4l-.05-.77c0-.22-.36-5.36 2.67-8.42s8.12-2.72 8.33-2.71l.75.06.06.76c0 .22.35 5.36-2.67 8.43-2.44 2.46-6.2 2.72-7.69 2.72z" fill-rule="evenodd"/><path d="M165.57 111.25s.36-4.93-2.42-7.74-7.64-2.44-7.64-2.44-.36 4.92 2.41 7.73 7.65 2.45 7.65 2.45" fill="#dbdbdb" fill-rule="evenodd"/><path d="M156.37 101.94c0 1.42.35 4.39 2.17 6.23s4.72 2.18 6.16 2.18c0-1.42-.35-4.39-2.17-6.23s-4.75-2.14-6.16-2.18zm8.62 10.21c-1.49 0-5.25-.26-7.69-2.72-3-3.07-2.69-8.21-2.67-8.43l.06-.76.75-.06c.22 0 5.3-.36 8.33 2.71s2.69 8.2 2.67 8.42l-.05.77h-1.4z" fill-rule="evenodd"/></symbol>


</svg>